<?xml version="1.0" encoding="UTF-8" standalone="no"?>
<!-- Generator: Adobe Illustrator 15.1.0, SVG Export Plug-In . SVG Version: 6.00 Build 0)  -->

<svg
   xmlns:dc="http://purl.org/dc/elements/1.1/"
   xmlns:cc="http://creativecommons.org/ns#"
   xmlns:rdf="http://www.w3.org/1999/02/22-rdf-syntax-ns#"
   xmlns:svg="http://www.w3.org/2000/svg"
   xmlns="http://www.w3.org/2000/svg"
   xmlns:sodipodi="http://sodipodi.sourceforge.net/DTD/sodipodi-0.dtd"
   xmlns:inkscape="http://www.inkscape.org/namespaces/inkscape"
   version="1.1"
   id="Layer_1"
   x="0px"
   y="0px"
   width="536px"
   height="432px"
   viewBox="-583.86 663.445 536 432"
   enable-background="new -583.86 663.445 536 432"
   xml:space="preserve"
   inkscape:version="0.48.4 r9939"
   sodipodi:docname="ffhh_logo_4_plain.svg"><metadata
     id="metadata955"><rdf:RDF><cc:Work
         rdf:about=""><dc:format>image/svg+xml</dc:format><dc:type
           rdf:resource="http://purl.org/dc/dcmitype/StillImage" /><dc:title /></cc:Work></rdf:RDF></metadata><defs
     id="defs953" /><sodipodi:namedview
     pagecolor="#ffffff"
     bordercolor="#666666"
     borderopacity="1"
     objecttolerance="10"
     gridtolerance="10"
     guidetolerance="10"
     inkscape:pageopacity="0"
     inkscape:pageshadow="2"
     inkscape:window-width="1317"
     inkscape:window-height="744"
     id="namedview951"
     showgrid="false"
     inkscape:zoom="1.5451593"
     inkscape:cx="58.307506"
     inkscape:cy="393.94078"
     inkscape:window-x="43"
     inkscape:window-y="24"
     inkscape:window-maximized="1"
     inkscape:current-layer="Layer_1" /><ellipse
     fill="none"
     stroke="#FFCC00"
     stroke-width="6"
     cx="-356.431"
     cy="866.203"
     rx="77.009"
     ry="78.846"
     id="ellipse653" /><circle
     fill="none"
     stroke="#808080"
     stroke-width="6"
     cx="-472.465"
     cy="925.723"
     r="42.32"
     id="circle655" /><circle
     fill="none"
     stroke="#A6A6A6"
     stroke-width="9"
     cx="-472.465"
     cy="924.066"
     r="55.026"
     id="circle657" /><circle
     fill="none"
     stroke="#A6A6A6"
     stroke-width="10"
     cx="-171.786"
     cy="891.109"
     r="71.979"
     id="circle659" /><path
     fill="none"
     stroke="#7A7A7A"
     stroke-width="8"
     d="M-253.373,790.161c47.789,0,86.528,38.738,86.528,86.525  c0,47.793-38.739,86.533-86.528,86.533c-47.79,0-86.531-38.74-86.531-86.533C-339.904,828.899-301.163,790.161-253.373,790.161z"
     id="path661" /><ellipse
     fill="none"
     stroke="#DD0066"
     stroke-width="12"
     cx="-356.545"
     cy="867.438"
     rx="95.152"
     ry="97.423"
     id="ellipse663" /><g
     id="g665"><g
       id="g667"><g
         id="g669"><path
           d="M-194.869,941.49c1.577-2.581,0.288-5.965,0.731-9.159c0.902-6.476,1.639-20.656,0.732-28.94     c-0.072-0.668-0.129-1.573-0.732-2.198c1.198-0.899,0.323-1.61,0.732-3.298c-0.577-1.009-2.227-0.948-2.197-2.563     c1.821,0.112,2.507-0.912,2.197-2.931c1.037-0.308,2.262-0.426,3.298-0.732c0.12-2.811,0.572-5.289,0.367-8.427     c0.854-0.255,2.231-0.532,2.197-2.563c-0.743-1.107-1.314,2.267-2.197,1.099c-0.026-2.879,0.345-6.659-0.734-9.158     c-0.011-1.11,1.286-0.912,2.198-1.099c1.183-2.077,1.696-12.543,1.467-16.119c-0.037-0.558-0.63-1.465-0.733-2.197     c-0.287-2.028,0.519-3.767-1.098-5.496c1.149,0.174,1.496-0.457,1.831-1.098c0.625-6.58,1.053-13.357,6.961-14.654     c0.399-2.58-0.002-2.607-1.1-4.029c1.014-0.453,1.301-1.631,2.198-2.198c0.557-6.526,1.211-12.955,1.832-19.416     c0.352,4.576,1.253,10.492,1.831,15.386c0.355,3.011,0.089,5.252,2.198,6.594c-0.101,0.754-1.365,0.346-1.466,1.1     c-0.266,1.12,0.633,1.077,0.367,2.197c5.102,1.684,6.766,8.528,6.595,14.288c0.134,1.209,1.081,1.604,1.832,2.197     c-0.789,1.213-1.298,3.37-1.466,6.595c-0.258,4.988-0.639,12.897,0,14.653c0.623,1.71,2.275,1.823,3.297,2.564     c-1.246,4.581-0.82,13.006-0.366,19.05c0.581,0.764,2.563,0.123,3.297,0.732c-0.309,2.019,0.376,3.044,2.198,2.931     c-0.209,1.502-1.383,2.035-2.564,2.564c0.757,0.881-0.23,2.215,1.099,2.931c-2.106,7.67-0.48,17.408-1.099,25.277     c-0.371,4.726,1.785,10.479,1.099,15.021 M-188.275,880.676C-188.762,878.861-190.004,880.105-188.275,880.676L-188.275,880.676z      M-178.384,854.3c-0.459-0.15-0.748-0.473-0.732-1.098c-1.632-0.289-2.435,0.25-3.298,0.732c0,4.273,0,8.547,0,12.821     c1.001-0.267,0.738,0.729,1.466,0.733c1.465-1.906,2.797-3.533,1.832-6.229c0.367-0.001,0.437,0.297,0.732,0.366     c0.111-0.72-0.493-0.727-0.732-1.099c2.475-0.857,0.269-5.626,0.367-6.228C-178.75,854.503-178.453,854.716-178.384,854.3z      M-175.452,862.359c0.871,0.686,0.939,4.195,2.563,5.13c-0.174-1.731,0.457-0.683,1.1-0.366c0-4.275,0-8.549,0-12.822     c-0.706-0.516-1.475-0.969-2.565-1.1c0.367,1.557,0.36,1.564-1.465,1.466C-174.561,857.617-176.466,859.305-175.452,862.359z      M-184.978,865.656c-0.027,0.514,0.082,1.402,0.367,0.733c0-0.61,0-1.222,0-1.832c-0.354-3.712,1.309-7.84-0.367-10.624     C-185.999,858.326-184.67,861.144-184.978,865.656z M-169.591,866.023c1.181-0.359,0.704-2.773,0.732-4.763     c0.034-2.339-0.025-4.738,0-6.595c-0.076-0.41-0.405-0.57-0.732-0.732C-169.591,857.964-169.591,861.994-169.591,866.023z      M-171.789,868.955c0.099-0.499-0.227-1.43-0.367-0.734C-172.255,868.72-171.929,869.651-171.789,868.955z M-185.344,877.379     c-0.748-0.474-0.666-1.776-2.197-1.466c-0.825,0.365,0.792,1.998-0.367,2.564c0.103-0.835-0.088-1.377-0.732-1.465     c-0.009,0.863,0.631,1.078,0.366,2.197c0.911-0.039,1.135-0.686,1.831,0c-0.443-1.123-0.938-1.79,0-2.931     C-186.229,876.607-185.674,878.371-185.344,877.379z M-185.71,880.31c-0.28-0.82,1.691-1.167,0.366-1.831     C-185.336,879.027-186.704,879.977-185.71,880.31z M-186.076,882.142c0.367,0,0.732,0,1.099,0c0-0.367,0-0.732,0-1.099     c-0.243,0-0.488,0-0.732,0C-185.73,881.511-186.181,881.551-186.076,882.142z M-187.541,883.608     c0.1-0.499-0.228-1.431-0.367-0.733C-188.008,883.374-187.682,884.304-187.541,883.608z M-185.344,885.073     c0.764-0.729,0.012-1.565-0.732-1.832C-186.13,884.15-186.145,885.019-185.344,885.073z M-189.374,885.439     c0.947,0.33,1.797-2.069,0.366-1.831C-188.858,884.491-189.676,884.404-189.374,885.439z M-187.176,888.37     c0.547-0.591-0.315-1.837,0-3.296C-188.989,885.614-189.508,888.192-187.176,888.37z"
           id="path671" /></g></g><g
       id="g673"><g
         id="g675"><path
           d="M-128.689,979.967c-30.315,0.599-45.732-2.222-77.629-1.958c-25.08,0.209-54.713-0.765-82.275-0.674l-99.875,1.143     v-37.011c0.512,1.062,2.139,1.008,2.023,2.698c4.758-3.336,14.994-1.191,21.581-2.698c2.4-13.243,2.835-31.6,2.698-45.184     c-2.719-1.775-8.196-0.797-9.441-4.047c1.109-3.612,6.093-3.349,9.441-4.721c3.742-9.935-7.711-9.571-10.792-14.836     c2.625-2.771,7.337-3.454,12.14-4.046c1.178-3.877-3.781-1.615-4.046-4.047c2.05,0.027,4.438,0.393,4.046-2.022     c0.053-2.527-4.775-0.172-4.72-2.698c2.156-0.091,5.161,0.665,4.72-2.023c-0.701-1.548-4.816,0.32-5.396-1.35     c2.339-0.133,5.184,0.239,5.396-2.023c0.216-2.912-4.678-0.717-4.72-3.371c1.532-0.492,5.261,1.215,4.72-1.349     c1.426-3.673-2.537-1.959-3.372-3.373c1.563,0.216,2.589-0.108,3.372-0.675c0.499-2.297-2.485-1.111-2.698-2.697     c4.328-0.455,3.294-6.439,1.349-8.092c4.66-2.84,0.668-16.938,4.046-22.93c0.943,8.58-0.977,16.066,2.698,23.604     c-1.146,0.654-1.733,1.863-1.349,4.046c1.117,5.292,0.985,4.969,0,10.116c0.323,2.15,4.485,0.46,5.395,2.023     c-1.751,1.714-4.761-1.325-5.395,2.024c-0.238,4.992,5.45-0.09,6.743,3.371c-1.331-0.994-4.908,0.084-6.743,0.675     c-1.056,3.978,5.726,0.12,5.395,3.372c-2.266,0.207-5.845-0.899-5.395,2.024c-0.317,2.339,3.659,0.386,4.045,2.022     c-1.418,0.604-4.025,0.022-3.371,2.697c3.46,2.385,12.09-0.4,12.14,5.396c-3.133,3.16-8.21,4.38-11.465,7.417     c0,2.024,0,4.048,0,6.068c2.433,2.063,7.615,1.376,8.767,4.723c-1.988,2.508-5.719,3.273-8.767,4.721     c-0.588,5.614,0.563,10.918,0.675,14.836c0.321,11.253-2.836,19.694,2.023,30.349c13.722-0.832,1.811,8.486,10.181,2.825     c0.448-9.442-0.896-20.679,0.676-28.999c2.921,0,5.844,0,8.767,0c1.33-0.467-0.167-3.763,1.349-4.047     c11.564,0.202,17.607-0.973,24.952,0c-0.172,14.186-0.08,24.288,0,39.79c1.276,1.196,4.455,0.49,6.745,0.675     c1.246-2.8,1.066-7.026,2.696-9.442c0.511,3.536,1.142,6.953,2.698,9.442c10.516-1.008,18.232,1.312,26.302-1.349     c-0.916-5.741-0.464-13.148,0.675-16.188c1.704,2.118,0.59,7.054,3.37,8.094c3.402-1.768,3.073-7.268,6.744-8.768     c9.467,0.2,20.482-1.151,26.301,2.697c2.012-1.361,3.328-3.417,5.396-4.721c-0.843-23.467,0.726-42.904,4.719-66.764     c2.349,21.255,3.987,43.222,4.721,66.089c4.946,0,9.892,0,14.838,0c1.901-0.12,0.84-3.204,3.37-2.697     c1.903,0.122,0.843,3.204,3.372,2.697c9.446-2.019,13.932,2.545,24.279,1.35c0.975,0.823,1.024,2.572,2.023,3.372     c3.822,0,7.644,0,11.466,0c2.123,0.102,0.284-3.763,3.372-2.698c0.574,3.248,4.854,2.79,8.766,2.698     c-0.065,2.765-0.131,5.526,0.675,7.417c4.271,0,12.062,0.304,16.334,0.304"
           id="path677" /></g></g><g
       id="g679"><path
         stroke="#000000"
         d="M-379.432,933.311c-19.953,2.079-39.907,4.154-59.86,6.217c-22.435,2.319-44.994,4.115-67.292,7.549    c-2.269,0.35-26.908,3.585-25.146,8.057c2.015,5.113,12.8,6.755,17.234,7.798c11.26,2.652,22.78,4.2,34.232,5.75    c-8.083-1.368-16.146-2.954-24.112-4.886c-1.565-0.381-20.289-5.055-16.197-8.067c3.505-2.579,8.989-3.197,13.111-4.013    c9.885-1.955,19.911-3.229,29.909-4.436c32.61-3.938,65.382-6.61,98.122-9.217V933.311L-379.432,933.311z"
         id="path681" /><path
         stroke="#000000"
         d="M-445.948,911.667c-1.76,8.527-3.52,17.057-5.277,25.584c-0.526,2.551-1.184,5.647-0.151,8.099    c0.568,1.345,1.437,2.623,1.308,4.094c-0.217,2.46-0.431,4.921-0.648,7.382c-0.243,2.767-0.484,5.532-0.728,8.299    c-0.051,0.587,0.104,3.273-0.42,3.631c-1.777,1.214-3.76,1.749-3.76,3.974c0,1.904,0.403,1.435,2.207,1.556    c8.883,0.597,17.767,1.192,26.649,1.788c-3.17-1.988-6.338-3.978-9.507-5.968c-1.991-1.249-7.09-3.013-6.987-5.609    c0.168-4.227,0.48-8.477,0.48-12.707c0-1.702,2.85-2.554,2.801-4.192c-0.048-1.551-0.068-3.103-0.151-4.649    c-0.47-8.9-0.974-17.81-1.147-26.72c-0.067-3.466,0.547-6.758,0.804-10.222c0.297-3.999,0.655-8.057,0.576-12.068    c-0.059-2.934-3.095-3.864-4.818-1.451C-444.718,892.486-445.127,907.681-445.948,911.667    C-445.948,911.667-445.127,907.681-445.948,911.667z"
         id="path683" /><path
         stroke="#000000"
         d="M-365.53,931.904c-24.844-10.902-49.683-21.817-74.524-32.725c0,3.19,0.735,2.794,3.548,4.075    c3.989,1.817,7.981,3.637,11.97,5.456c10.633,4.845,21.266,9.689,31.897,14.535c3.628,1.653,7.257,3.308,10.886,4.961    c2.395,1.092,2.791,1.222,2.302,4.34c-0.704,4.491-1.408,8.982-2.111,13.474c-0.54,3.445-0.456,7.909-2.12,11.03    c-1.562,2.929-1.068,6.579-1.208,9.854c-0.025,0.55-0.572,3.663-0.175,4.064c0.332,0.335,2.475,0.128,2.92,0.151    c4.482,0.232,8.964,0.463,13.445,0.695c3.178,0.164,3.998,1.137,4.171-2.082c0.227-4.241,0.456-8.483,0.683-12.725    c0.076-1.4,0.26-1.316-1.162-1.565c-1.905-0.333-3.809-0.666-5.713-1c-0.468-0.081,1.176-16.951,1.318-18.842    c1.876,0.292,3.752,0.585,5.631,0.878C-363.77,934.264-362.704,931.572-365.53,931.904L-365.53,931.904z"
         id="path685" /><path
         stroke="#000000"
         d="M-489.068,948.244c-0.271,4.275-0.542,8.552-0.813,12.828c-0.116,1.846-0.234,3.692-0.352,5.538    c-0.024,0.397,4.027,0.935,4.639,1.053c0.595-6.711,1.19-13.421,1.785-20.132c-6.557,1.04-13.113,2.079-19.669,3.118    c-1.997,0.316-4.139-0.243-4.139,1.945c0,3.4,0,6.802,0,10.203c-2.222-0.628-3.865-0.25-3.865-2.651c0-2.512,0-5.023,0-7.535"
         id="path687" /><path
         stroke="#000000"
         d="M-521.102,961.159c0,2.953,0,5.906,0,8.859c0,1.468,0.464,2.007-1.025,2.007c-1.94,0-3.88,0-5.819,0    c-0.646,0-2.118,0.412-2.118-0.393c0-1.531,0-3.062,0-4.594c0-3.322,0-6.645,0-9.967"
         id="path689" /><path
         fill="#FFFFFF"
         stroke="#000000"
         d="M-527.072,960.939c0.441,0.189,2.464,0.761,2.464,1.207c0,0.501,0.207,3.369-0.183,3.369    c-1.396,0-2.281,0.54-2.281-0.965c0-1.438,0-2.877,0-4.314"
         id="path691" /><path
         stroke="#000000"
         d="M-445.152,903.05c-11.069,7.741-22.139,15.484-33.207,23.225c-7.237,5.062-14.474,10.124-21.711,15.186    c-3.262,2.282-6.562,5.611-10.55,6.267c21.867-15.774,43.734-31.548,65.603-47.322    C-445.061,901.286-445.106,902.168-445.152,903.05L-445.152,903.05z"
         id="path693" /></g></g><rect
     x="-530.064"
     y="955.009"
     stroke="#000000"
     width="402.125"
     height="38.965"
     id="rect695" /></svg>