<?xml version="1.0" encoding="UTF-8"?>
<!DOCTYPE svg PUBLIC "-//W3C//DTD SVG 1.1//EN" "http://www.w3.org/Graphics/SVG/1.1/DTD/svg11.dtd">
<!-- Creator: CorelDRAW -->
<svg xmlns="http://www.w3.org/2000/svg" xml:space="preserve" width="156.505mm" height="99.7323mm" style="shape-rendering:geometricPrecision; text-rendering:geometricPrecision; image-rendering:optimizeQuality; fill-rule:evenodd; clip-rule:evenodd"
viewBox="0 0 153.929 98.0911"
 xmlns:xlink="http://www.w3.org/1999/xlink">
 <defs>
  <style type="text/css">
   <![CDATA[
    .str0 {stroke:#1F1A17;stroke-width:0.196709}
    .fil4 {fill:black}
    .fil0 {fill:#B2B2B2;fill-rule:nonzero}
    .fil1 {fill:#CCCCCC;fill-rule:nonzero}
    .fil3 {fill:#DC0067;fill-rule:nonzero}
    .fil2 {fill:#FFB400;fill-rule:nonzero}
   ]]>
  </style>
 </defs>
 <g id="Ebene_x0020_1">
  <metadata id="CorelCorpID_0Corel-Layer"/>
  <g>
   <path class="fil0" d="M150.046 76.721l-1.03744 0 0 0 -0.0146548 -0.635566 -0.0475052 -0.624747 -0.0795687 -0.615403 -0.106714 -0.605076 -0.137106 -0.596126 -0.166907 -0.582159 -0.193463 -0.571439 -0.219527 -0.560128 -0.246771 -0.543703 -0.271163 -0.530622 -0.296735 -0.514787 -0.319455 -0.499935 -0.343453 -0.482625 -0.366567 -0.464233 -0.387024 -0.447021 -0.4064 -0.427153 -0.427251 -0.408466 -0.447119 -0.386926 -0.464233 -0.364501 -0.482625 -0.343355 -0.500132 -0.321422 -0.514885 -0.29467 -0.530622 -0.27313 -0.545867 -0.246771 -0.558063 -0.219429 -0.571636 -0.193561 -0.584225 -0.166809 -0.596224 -0.137106 -0.605174 -0.106714 -0.615403 -0.0795687 -0.624944 -0.0474068 -0.635566 -0.0147532 0 -1.04079 0.684153 0.0186873 0.677662 0.0515377 0.668121 0.0836996 0.657892 0.11891 0.644811 0.149302 0.632812 0.179005 0.620223 0.209691 0.60665 0.239886 0.59052 0.267032 0.575275 0.293391 0.559341 0.323192 0.540654 0.345814 0.523147 0.371878 0.504755 0.396958 0.483707 0.419383 0.463642 0.441119 0.442988 0.463741 0.419285 0.483608 0.395089 0.504951 0.371779 0.523147 0.347781 0.540654 0.321127 0.55944 0.295358 0.575471 0.267032 0.592487 0.239788 0.604781 0.20979 0.620223 0.178907 0.635074 0.149302 0.64491 0.11891 0.657991 0.0836996 0.668121 0.0514393 0.677662 0.0187857 0.68435 0 0zm-13.3444 13.3461l0 -1.04079 0 0 0.635566 -0.0147532 0.624944 -0.0474068 0.615403 -0.0795687 0.605174 -0.106714 0.596224 -0.137106 0.584225 -0.166809 0.571636 -0.193561 0.558063 -0.219429 0.545867 -0.246771 0.530622 -0.27313 0.514885 -0.29467 0.500132 -0.321422 0.482625 -0.343355 0.464233 -0.364501 0.447119 -0.386926 0.427251 -0.408466 0.4064 -0.427153 0.387024 -0.447021 0.366567 -0.464233 0.343453 -0.482625 0.319455 -0.499935 0.296735 -0.514787 0.271163 -0.530622 0.246771 -0.543703 0.219527 -0.560128 0.193463 -0.571439 0.166907 -0.582159 0.137106 -0.596126 0.106714 -0.605076 0.0795687 -0.615403 0.0475052 -0.624747 0.0146548 -0.635566 1.03744 0 -0.0187857 0.68435 -0.0514393 0.677662 -0.0836996 0.668121 -0.11891 0.657991 -0.149302 0.64491 -0.178907 0.635074 -0.20979 0.620223 -0.239788 0.604781 -0.267032 0.592487 -0.295358 0.575471 -0.321127 0.55944 -0.347781 0.540654 -0.371779 0.523147 -0.395089 0.504951 -0.419285 0.483608 -0.442988 0.463741 -0.463642 0.441119 -0.483707 0.419383 -0.504755 0.396958 -0.523147 0.371878 -0.540654 0.345814 -0.559341 0.323192 -0.575275 0.293391 -0.59052 0.267032 -0.60665 0.239886 -0.620223 0.209691 -0.632812 0.179005 -0.644811 0.149302 -0.657892 0.11891 -0.668121 0.0836996 -0.677662 0.0515377 -0.684153 0.0186873 0 0zm-13.3444 -13.3461l1.03744 0 0 0 0.0146548 0.635566 0.0475052 0.624747 0.0795687 0.615403 0.106714 0.605076 0.137106 0.596126 0.166907 0.582159 0.193463 0.571439 0.219527 0.560128 0.246771 0.543703 0.271163 0.530622 0.296735 0.514787 0.319455 0.499935 0.343453 0.482625 0.366567 0.464233 0.387024 0.447021 0.4064 0.427153 0.427251 0.408466 0.447119 0.386926 0.464233 0.364501 0.482625 0.343355 0.500132 0.321422 0.514885 0.29467 0.530622 0.27313 0.545867 0.246771 0.558063 0.219429 0.571636 0.193561 0.584225 0.166809 0.596224 0.137106 0.605174 0.106714 0.615403 0.0795687 0.624944 0.0474068 0.635566 0.0147532 0 1.04079 -0.684153 -0.0186873 -0.677662 -0.0515377 -0.668121 -0.0836996 -0.657892 -0.11891 -0.644811 -0.149302 -0.632812 -0.179005 -0.620223 -0.209691 -0.60665 -0.239886 -0.59052 -0.267032 -0.575275 -0.293391 -0.559341 -0.323192 -0.540654 -0.345814 -0.523147 -0.371878 -0.504755 -0.396958 -0.483707 -0.419383 -0.463642 -0.441119 -0.442988 -0.463741 -0.419285 -0.483608 -0.395089 -0.504951 -0.371779 -0.523147 -0.347781 -0.540654 -0.321127 -0.55944 -0.295358 -0.575471 -0.267032 -0.592487 -0.239788 -0.604781 -0.20979 -0.620223 -0.178907 -0.635074 -0.149302 -0.64491 -0.11891 -0.657991 -0.0836996 -0.668121 -0.0514393 -0.677662 -0.0187857 -0.68435 0 0zm13.3444 -13.3461l0 1.04079 0 0 -0.635566 0.0147532 -0.624944 0.0474068 -0.615403 0.0795687 -0.605174 0.106714 -0.596224 0.137106 -0.584225 0.166809 -0.571636 0.193561 -0.558063 0.219429 -0.545867 0.246771 -0.530622 0.27313 -0.514885 0.29467 -0.500132 0.321422 -0.482625 0.343355 -0.464233 0.364501 -0.447119 0.386926 -0.427251 0.408466 -0.4064 0.427153 -0.387024 0.447021 -0.366567 0.464233 -0.343453 0.482625 -0.319455 0.499935 -0.296735 0.514787 -0.271163 0.530622 -0.246771 0.543703 -0.219527 0.560128 -0.193463 0.571439 -0.166907 0.582159 -0.137106 0.596126 -0.106714 0.605076 -0.0795687 0.615403 -0.0475052 0.624747 -0.0146548 0.635566 -1.03744 0 0.0187857 -0.68435 0.0514393 -0.677662 0.0836996 -0.668121 0.11891 -0.657991 0.149302 -0.64491 0.178907 -0.635074 0.20979 -0.620223 0.239788 -0.604781 0.267032 -0.592487 0.295358 -0.575471 0.321127 -0.55944 0.347781 -0.540654 0.371779 -0.523147 0.395089 -0.504951 0.419285 -0.483608 0.442988 -0.463741 0.463642 -0.441119 0.483707 -0.419383 0.504755 -0.396958 0.523147 -0.371878 0.540654 -0.345814 0.559341 -0.323192 0.575275 -0.293391 0.59052 -0.267032 0.60665 -0.239886 0.620223 -0.209691 0.632812 -0.179005 0.644811 -0.149302 0.657892 -0.11891 0.668121 -0.0836996 0.677662 -0.0515377 0.684153 -0.0186873 0 0z"/>
  </g>
  <g>
   <path class="fil1" d="M153.929 76.721l-2.1758 0 0 0 -0.0168186 -0.779262 -0.0580291 -0.764017 -0.0983544 -0.752214 -0.129238 -0.739231 -0.167497 -0.729593 -0.204872 -0.710414 -0.236739 -0.698709 -0.267721 -0.685923 -0.302046 -0.663794 -0.330864 -0.648942 -0.363223 -0.628976 -0.390073 -0.612158 -0.420268 -0.590126 -0.449479 -0.567111 -0.473281 -0.547145 -0.496099 -0.522262 -0.52236 -0.50023 -0.54744 -0.473281 -0.56721 -0.445053 -0.590224 -0.42017 -0.612256 -0.394204 -0.629173 -0.358895 -0.649139 -0.335093 -0.66822 -0.301948 -0.681792 -0.267721 -0.698906 -0.236641 -0.714839 -0.204774 -0.729789 -0.167497 -0.739428 -0.129139 -0.752312 -0.0984527 -0.764213 -0.0579307 -0.779458 -0.0168186 0 -2.18307 0.881353 0.0252771 0.874764 0.0665859 0.862863 0.106911 0.849978 0.154711 0.831684 0.19307 0.816931 0.230346 0.800801 0.270868 0.783884 0.31021 0.761656 0.344634 0.742575 0.377779 0.722609 0.418498 0.697234 0.445349 0.675399 0.479969 0.652188 0.513311 0.623763 0.541342 0.59888 0.568488 0.572619 0.598978 0.541342 0.624058 0.508885 0.652286 0.479871 0.675498 0.449479 0.697332 0.41417 0.722806 0.382008 0.742772 0.344535 0.766082 0.31021 0.779753 0.27077 0.800998 0.230248 0.821357 0.19307 0.831881 0.154613 0.850175 0.10701 0.862961 0.0664875 0.87496 0.0252771 0.88155 0 0zm-17.2272 17.2308l0 -2.18307 0 0 0.779458 -0.0168186 0.764213 -0.0579307 0.752312 -0.0984527 0.739428 -0.129139 0.729789 -0.167497 0.714839 -0.204774 0.698906 -0.236641 0.681792 -0.267721 0.66822 -0.301948 0.649139 -0.335093 0.629173 -0.358895 0.612256 -0.394204 0.590224 -0.42017 0.56721 -0.445053 0.54744 -0.473281 0.52236 -0.50023 0.496099 -0.522262 0.473281 -0.547145 0.449479 -0.567111 0.420268 -0.590126 0.390073 -0.612158 0.363223 -0.628976 0.330864 -0.648942 0.302046 -0.663794 0.267721 -0.685923 0.236739 -0.698709 0.204872 -0.710414 0.167497 -0.729593 0.129238 -0.739231 0.0983544 -0.752214 0.0580291 -0.764017 0.0168186 -0.779262 2.1758 0 -0.0252771 0.88155 -0.0664875 0.87496 -0.10701 0.862961 -0.154613 0.850175 -0.19307 0.831881 -0.230248 0.821357 -0.27077 0.800998 -0.31021 0.779753 -0.344535 0.766082 -0.382008 0.742772 -0.41417 0.722806 -0.449479 0.697332 -0.479871 0.675498 -0.508885 0.652286 -0.541342 0.624058 -0.572619 0.598978 -0.59888 0.568488 -0.623763 0.541342 -0.652188 0.513311 -0.675399 0.479969 -0.697234 0.445349 -0.722609 0.418498 -0.742575 0.377779 -0.761656 0.344634 -0.783884 0.31021 -0.800801 0.270868 -0.816931 0.230346 -0.831684 0.19307 -0.849978 0.154711 -0.862863 0.106911 -0.874764 0.0665859 -0.881353 0.0252771 0 0zm-17.2272 -17.2308l2.1758 0 0 0 0.0168186 0.779262 0.0580291 0.764017 0.0983544 0.752214 0.129238 0.739231 0.167497 0.729593 0.204872 0.710414 0.236739 0.698709 0.267721 0.685923 0.302046 0.663794 0.330864 0.648942 0.363223 0.628976 0.390073 0.612158 0.420268 0.590126 0.449479 0.567111 0.473281 0.547145 0.496099 0.522262 0.52236 0.50023 0.54744 0.473281 0.56721 0.445053 0.590224 0.42017 0.612256 0.394204 0.629173 0.358895 0.649139 0.335093 0.66822 0.301948 0.681792 0.267721 0.698906 0.236641 0.714839 0.204774 0.729789 0.167497 0.739428 0.129139 0.752312 0.0984527 0.764213 0.0579307 0.779458 0.0168186 0 2.18307 -0.881353 -0.0252771 -0.874764 -0.0665859 -0.862863 -0.106911 -0.849978 -0.154711 -0.831684 -0.19307 -0.816931 -0.230346 -0.800801 -0.270868 -0.783884 -0.31021 -0.761656 -0.344634 -0.742575 -0.377779 -0.722609 -0.418498 -0.697234 -0.445349 -0.675399 -0.479969 -0.652188 -0.513311 -0.623763 -0.541342 -0.59888 -0.568488 -0.572619 -0.598978 -0.541342 -0.624058 -0.508885 -0.652286 -0.479871 -0.675498 -0.449479 -0.697332 -0.41417 -0.722806 -0.382008 -0.742772 -0.344535 -0.766082 -0.31021 -0.779753 -0.27077 -0.800998 -0.230248 -0.821357 -0.19307 -0.831881 -0.154613 -0.850175 -0.10701 -0.862961 -0.0664875 -0.87496 -0.0252771 -0.88155 0 0zm17.2272 -17.2308l0 2.18307 0 0 -0.779458 0.0168186 -0.764213 0.0579307 -0.752312 0.0984527 -0.739428 0.129139 -0.729789 0.167497 -0.714839 0.204774 -0.698906 0.236641 -0.681792 0.267721 -0.66822 0.301948 -0.649139 0.335093 -0.629173 0.358895 -0.612256 0.394204 -0.590224 0.42017 -0.56721 0.445053 -0.54744 0.473281 -0.52236 0.50023 -0.496099 0.522262 -0.473281 0.547145 -0.449479 0.567111 -0.420268 0.590126 -0.390073 0.612158 -0.363223 0.628976 -0.330864 0.648942 -0.302046 0.663794 -0.267721 0.685923 -0.236739 0.698709 -0.204872 0.710414 -0.167497 0.729593 -0.129238 0.739231 -0.0983544 0.752214 -0.0580291 0.764017 -0.0168186 0.779262 -2.1758 0 0.0252771 -0.88155 0.0664875 -0.87496 0.10701 -0.862961 0.154613 -0.850175 0.19307 -0.831881 0.230248 -0.821357 0.27077 -0.800998 0.31021 -0.779753 0.344535 -0.766082 0.382008 -0.742772 0.41417 -0.722806 0.449479 -0.697332 0.479871 -0.675498 0.508885 -0.652286 0.541342 -0.624058 0.572619 -0.598978 0.59888 -0.568488 0.623763 -0.541342 0.652188 -0.513311 0.675399 -0.479969 0.697234 -0.445349 0.722609 -0.418498 0.742575 -0.377779 0.761656 -0.344634 0.783884 -0.31021 0.800801 -0.270868 0.816931 -0.230346 0.831684 -0.19307 0.849978 -0.154711 0.862863 -0.106911 0.874764 -0.0665859 0.881353 -0.0252771 0 0z"/>
  </g>
  <g>
   <path class="fil1" d="M60.4624 66.8578l-5.18721 0 0 0 -0.0258672 -1.30005 -0.096584 -1.27113 -0.165629 -1.25097 -0.21274 -1.22864 -0.278244 -1.21507 -0.342175 -1.17917 -0.394008 -1.16216 -0.444267 -1.14317 -0.502886 -1.10226 -0.549703 -1.07983 -0.604781 -1.04551 -0.648057 -1.01974 -0.699693 -0.98197 -0.74946 -0.942431 -0.78772 -0.911351 -0.824013 -0.868371 -0.868764 -0.833848 -0.911647 -0.787523 -0.942825 -0.739231 -0.982265 -0.699398 -1.02003 -0.657991 -1.046 -0.594454 -1.08023 -0.559538 -1.11278 -0.502689 -1.13344 -0.44407 -1.16245 -0.394008 -1.18979 -0.341978 -1.21536 -0.278146 -1.22923 -0.212642 -1.25126 -0.165629 -1.27162 -0.0964856 -1.30044 -0.0258672 0 -5.20452 1.54357 0.0461282 1.53502 0.116943 1.51466 0.18589 1.49263 0.273622 1.4585 0.339126 1.43312 0.402958 1.40558 0.475248 1.37657 0.545768 1.33565 0.604388 1.3031 0.661236 1.26887 0.736674 1.22264 0.77995 1.18487 0.841815 1.14543 0.901909 1.094 0.950005 1.05111 0.996526 1.00636 1.05131 0.949808 1.09449 0.891484 1.14563 0.84152 1.18537 0.789884 1.22294 0.726347 1.26916 0.671268 1.30349 0.604191 1.34618 0.545572 1.36683 0.475052 1.40607 0.402958 1.44355 0.339027 1.45899 0.273523 1.49302 0.18589 1.51515 0.116845 1.53551 0.0461282 1.54397 0 0zm-30.2312 30.2398l0 -5.20452 0 0 1.30044 -0.0258672 1.27162 -0.0964856 1.25126 -0.165629 1.22923 -0.212642 1.21536 -0.278146 1.18979 -0.341978 1.16245 -0.394008 1.13344 -0.44407 1.11278 -0.502689 1.08023 -0.559538 1.046 -0.594454 1.02003 -0.657991 0.982265 -0.699398 0.942825 -0.739231 0.911647 -0.787523 0.868764 -0.833848 0.824013 -0.868371 0.78772 -0.911351 0.74946 -0.942431 0.699693 -0.98197 0.648057 -1.01974 0.604781 -1.04551 0.549703 -1.07983 0.502886 -1.10226 0.444267 -1.14317 0.394008 -1.16216 0.342175 -1.17917 0.278244 -1.21507 0.21274 -1.22864 0.165629 -1.25097 0.096584 -1.27113 0.0258672 -1.30005 5.18721 0 -0.0461282 1.54397 -0.116845 1.53551 -0.18589 1.51515 -0.273523 1.49302 -0.339027 1.45899 -0.402958 1.44355 -0.475052 1.40607 -0.545572 1.36683 -0.604191 1.34618 -0.671268 1.30349 -0.726347 1.26916 -0.789884 1.22294 -0.84152 1.18537 -0.891484 1.14563 -0.949808 1.09449 -1.00636 1.05131 -1.05111 0.996526 -1.094 0.950005 -1.14543 0.901909 -1.18487 0.841815 -1.22264 0.77995 -1.26887 0.736674 -1.3031 0.661236 -1.33565 0.604388 -1.37657 0.545768 -1.40558 0.475248 -1.43312 0.402958 -1.4585 0.339126 -1.49263 0.273622 -1.51466 0.18589 -1.53502 0.116943 -1.54357 0.0461282 0 0zm-30.2312 -30.2398l5.18721 0 0 0 0.0258672 1.30005 0.096584 1.27113 0.165629 1.25097 0.21274 1.22864 0.278244 1.21507 0.342175 1.17917 0.394008 1.16216 0.444267 1.14317 0.502886 1.10226 0.549703 1.07983 0.604781 1.04551 0.648057 1.01974 0.699693 0.98197 0.74946 0.942431 0.78772 0.911351 0.824013 0.868371 0.868764 0.833848 0.911647 0.787523 0.942825 0.739231 0.982265 0.699398 1.02003 0.657991 1.046 0.594454 1.08023 0.559538 1.11278 0.502689 1.13344 0.44407 1.16245 0.394008 1.18979 0.341978 1.21536 0.278146 1.22923 0.212642 1.25126 0.165629 1.27162 0.0964856 1.30044 0.0258672 0 5.20452 -1.54357 -0.0461282 -1.53502 -0.116943 -1.51466 -0.18589 -1.49263 -0.273622 -1.4585 -0.339126 -1.43312 -0.402958 -1.40558 -0.475248 -1.37657 -0.545768 -1.33565 -0.604388 -1.3031 -0.661236 -1.26887 -0.736674 -1.22264 -0.77995 -1.18487 -0.841815 -1.14543 -0.901909 -1.094 -0.950005 -1.05111 -0.996526 -1.00636 -1.05131 -0.949808 -1.09449 -0.891484 -1.14563 -0.84152 -1.18537 -0.789884 -1.22294 -0.726347 -1.26916 -0.671268 -1.30349 -0.604191 -1.34618 -0.545572 -1.36683 -0.475052 -1.40607 -0.402958 -1.44355 -0.339027 -1.45899 -0.273523 -1.49302 -0.18589 -1.51515 -0.116845 -1.53551 -0.0461282 -1.54397 0 0zm30.2312 -30.2398l0 5.20452 0 0 -1.30044 0.0258672 -1.27162 0.0964856 -1.25126 0.165629 -1.22923 0.212642 -1.21536 0.278146 -1.18979 0.341978 -1.16245 0.394008 -1.13344 0.44407 -1.11278 0.502689 -1.08023 0.559538 -1.046 0.594454 -1.02003 0.657991 -0.982265 0.699398 -0.942825 0.739231 -0.911647 0.787523 -0.868764 0.833848 -0.824013 0.868371 -0.78772 0.911351 -0.74946 0.942431 -0.699693 0.98197 -0.648057 1.01974 -0.604781 1.04551 -0.549703 1.07983 -0.502886 1.10226 -0.444267 1.14317 -0.394008 1.16216 -0.342175 1.17917 -0.278244 1.21507 -0.21274 1.22864 -0.165629 1.25097 -0.096584 1.27113 -0.0258672 1.30005 -5.18721 0 0.0461282 -1.54397 0.116845 -1.53551 0.18589 -1.51515 0.273523 -1.49302 0.339027 -1.45899 0.402958 -1.44355 0.475052 -1.40607 0.545572 -1.36683 0.604191 -1.34618 0.671268 -1.30349 0.726347 -1.26916 0.789884 -1.22294 0.84152 -1.18537 0.891484 -1.14563 0.949808 -1.09449 1.00636 -1.05131 1.05111 -0.996526 1.094 -0.950005 1.14543 -0.901909 1.18487 -0.841815 1.22264 -0.77995 1.26887 -0.736674 1.3031 -0.661236 1.33565 -0.604388 1.37657 -0.545768 1.40558 -0.475248 1.43312 -0.402958 1.4585 -0.339126 1.49263 -0.273622 1.51466 -0.18589 1.53502 -0.116943 1.54357 -0.0461282 0 0z"/>
  </g>
  <g>
   <path class="fil0" d="M54.0995 66.8578l-3.31631 0 0 0 -0.0224248 -1.06478 -0.0792736 -1.04324 -0.134745 -1.02692 -0.176054 -1.00912 -0.228576 -0.996428 -0.279818 -0.969479 -0.323389 -0.953841 -0.365386 -0.937219 -0.412498 -0.905745 -0.451545 -0.886173 -0.496001 -0.858634 -0.53249 -0.83611 -0.573898 -0.805916 -0.614125 -0.774049 -0.646286 -0.747395 -0.67717 -0.712872 -0.713069 -0.683464 -0.747591 -0.64609 -0.774344 -0.607535 -0.806014 -0.573701 -0.836405 -0.538884 -0.85883 -0.489313 -0.886468 -0.458036 -0.912532 -0.412301 -0.930826 -0.365288 -0.954136 -0.323291 -0.976265 -0.279818 -0.996723 -0.228477 -1.00931 -0.175956 -1.02721 -0.134745 -1.04354 -0.0792736 -1.06508 -0.0224248 0 -3.32733 1.22048 0.0354076 1.21192 0.0922564 1.1956 0.147728 1.17789 0.214904 1.15212 0.267622 1.13167 0.318766 1.10954 0.375222 1.08642 0.430202 1.05495 0.477412 1.02888 0.52295 1.00144 0.580389 0.96584 0.61678 0.935645 0.664777 0.903778 0.711397 0.86424 0.750149 0.829717 0.787327 0.793621 0.829914 0.749952 0.864436 0.704807 0.904073 0.66458 0.935743 0.623173 0.966135 0.573701 1.00164 0.529442 1.02918 0.477215 1.06174 0.430104 1.08003 0.375124 1.10983 0.318766 1.13845 0.267524 1.15242 0.214806 1.17809 0.147728 1.19589 0.0922564 1.21222 0.0354076 1.22077 0 0zm-23.8683 23.8738l0 -3.32733 0 0 1.06508 -0.0224248 1.04354 -0.0792736 1.02721 -0.134745 1.00931 -0.175956 0.996723 -0.228477 0.976265 -0.279818 0.954136 -0.323291 0.930826 -0.365288 0.912532 -0.412301 0.886468 -0.458036 0.85883 -0.489313 0.836405 -0.538884 0.806014 -0.573701 0.774344 -0.607535 0.747591 -0.64609 0.713069 -0.683464 0.67717 -0.712872 0.646286 -0.747395 0.614125 -0.774049 0.573898 -0.805916 0.53249 -0.83611 0.496001 -0.858634 0.451545 -0.886173 0.412498 -0.905745 0.365386 -0.937219 0.323389 -0.953841 0.279818 -0.969479 0.228576 -0.996428 0.176054 -1.00912 0.134745 -1.02692 0.0792736 -1.04324 0.0224248 -1.06478 3.31631 0 -0.0354076 1.22077 -0.0922564 1.21222 -0.147728 1.19589 -0.214806 1.17809 -0.267524 1.15242 -0.318766 1.13845 -0.375124 1.10983 -0.430104 1.08003 -0.477215 1.06174 -0.529442 1.02918 -0.573701 1.00164 -0.623173 0.966135 -0.66458 0.935743 -0.704807 0.904073 -0.749952 0.864436 -0.793621 0.829914 -0.829717 0.787327 -0.86424 0.750149 -0.903778 0.711397 -0.935645 0.664777 -0.96584 0.61678 -1.00144 0.580389 -1.02888 0.52295 -1.05495 0.477412 -1.08642 0.430202 -1.10954 0.375222 -1.13167 0.318766 -1.15212 0.267622 -1.17789 0.214904 -1.1956 0.147728 -1.21192 0.0922564 -1.22048 0.0354076 0 0zm-23.8683 -23.8738l3.31631 0 0 0 0.0224248 1.06478 0.0792736 1.04324 0.134745 1.02692 0.176054 1.00912 0.228576 0.996428 0.279818 0.969479 0.323389 0.953841 0.365386 0.937219 0.412498 0.905745 0.451545 0.886173 0.496001 0.858634 0.53249 0.83611 0.573898 0.805916 0.614125 0.774049 0.646286 0.747395 0.67717 0.712872 0.713069 0.683464 0.747591 0.64609 0.774344 0.607535 0.806014 0.573701 0.836405 0.538884 0.85883 0.489313 0.886468 0.458036 0.912532 0.412301 0.930826 0.365288 0.954136 0.323291 0.976265 0.279818 0.996723 0.228477 1.00931 0.175956 1.02721 0.134745 1.04354 0.0792736 1.06508 0.0224248 0 3.32733 -1.22048 -0.0354076 -1.21192 -0.0922564 -1.1956 -0.147728 -1.17789 -0.214904 -1.15212 -0.267622 -1.13167 -0.318766 -1.10954 -0.375222 -1.08642 -0.430202 -1.05495 -0.477412 -1.02888 -0.52295 -1.00144 -0.580389 -0.96584 -0.61678 -0.935645 -0.664777 -0.903778 -0.711397 -0.86424 -0.750149 -0.829717 -0.787327 -0.793621 -0.829914 -0.749952 -0.864436 -0.704807 -0.904073 -0.66458 -0.935743 -0.623173 -0.966135 -0.573701 -1.00164 -0.529442 -1.02918 -0.477215 -1.06174 -0.430104 -1.08003 -0.375124 -1.10983 -0.318766 -1.13845 -0.267524 -1.15242 -0.214806 -1.17809 -0.147728 -1.19589 -0.0922564 -1.21222 -0.0354076 -1.22077 0 0zm23.8683 -23.8738l0 3.32733 0 0 -1.06508 0.0224248 -1.04354 0.0792736 -1.02721 0.134745 -1.00931 0.175956 -0.996723 0.228477 -0.976265 0.279818 -0.954136 0.323291 -0.930826 0.365288 -0.912532 0.412301 -0.886468 0.458036 -0.85883 0.489313 -0.836405 0.538884 -0.806014 0.573701 -0.774344 0.607535 -0.747591 0.64609 -0.713069 0.683464 -0.67717 0.712872 -0.646286 0.747395 -0.614125 0.774049 -0.573898 0.805916 -0.53249 0.83611 -0.496001 0.858634 -0.451545 0.886173 -0.412498 0.905745 -0.365386 0.937219 -0.323389 0.953841 -0.279818 0.969479 -0.228576 0.996428 -0.176054 1.00912 -0.134745 1.02692 -0.0792736 1.04324 -0.0224248 1.06478 -3.31631 0 0.0354076 -1.22077 0.0922564 -1.21222 0.147728 -1.19589 0.214806 -1.17809 0.267524 -1.15242 0.318766 -1.13845 0.375124 -1.10983 0.430104 -1.08003 0.477215 -1.06174 0.529442 -1.02918 0.573701 -1.00164 0.623173 -0.966135 0.66458 -0.935743 0.704807 -0.904073 0.749952 -0.864436 0.793621 -0.829914 0.829717 -0.787327 0.86424 -0.750149 0.903778 -0.711397 0.935645 -0.664777 0.96584 -0.61678 1.00144 -0.580389 1.02888 -0.52295 1.05495 -0.477412 1.08642 -0.430202 1.10954 -0.375222 1.13167 -0.318766 1.15212 -0.267622 1.17789 -0.214904 1.1956 -0.147728 1.21192 -0.0922564 1.22048 -0.0354076 0 0z"/>
  </g>
  <g>
   <path class="fil0" d="M130.542 71.938l-4.20189 0 0 0 -0.0177038 -0.925908 -0.0687497 -0.90427 -0.118419 -0.889615 -0.150581 -0.873583 -0.197791 -0.86483 -0.24382 -0.837881 -0.280408 -0.826668 -0.315521 -0.805522 -0.357912 -0.791654 -0.390565 -0.768148 -0.430497 -0.743461 -0.460692 -0.725757 -0.49787 -0.698611 -0.533867 -0.670088 -0.560325 -0.648549 -0.5857 -0.617665 -0.617862 -0.593667 -0.648844 -0.560128 -0.670383 -0.525507 -0.698808 -0.497673 -0.726052 -0.468659 -0.743756 -0.422039 -0.768443 -0.398729 -0.792048 -0.357715 -0.805817 -0.315521 -0.826963 -0.280212 -0.846536 -0.243722 -0.865027 -0.197692 -0.874075 -0.150482 -0.88991 -0.118419 -0.904565 -0.0687497 -0.926301 -0.0177038 0 -4.21586 1.12321 0.0342273 1.11799 0.0850765 1.10334 0.134942 1.08731 0.199856 1.06213 0.247066 1.04344 0.293293 1.02387 0.346109 1.00292 0.397745 0.97243 0.440136 0.949021 0.480953 0.924334 0.53731 0.890107 0.567603 0.863059 0.612944 0.834438 0.657105 0.796572 0.691923 0.76559 0.725462 0.733428 0.765787 0.691726 0.796867 0.648745 0.834733 0.612748 0.863256 0.57557 0.890402 0.528851 0.924629 0.489116 0.949316 0.439939 0.972823 0.397745 1.00321 0.345912 1.02416 0.293194 1.0521 0.246968 1.06233 0.199758 1.0878 0.134942 1.10363 0.0850765 1.11829 0.0342273 1.1236 0 0zm-22.0177 22.0247l0 -4.21586 0 0 0.926301 -0.0177038 0.904565 -0.0687497 0.88991 -0.118419 0.874075 -0.150482 0.865027 -0.197692 0.846536 -0.243722 0.826963 -0.280212 0.805817 -0.315521 0.792048 -0.357715 0.768443 -0.398729 0.743756 -0.422039 0.726052 -0.468659 0.698808 -0.497673 0.670383 -0.525507 0.648844 -0.560128 0.617862 -0.593667 0.5857 -0.617665 0.560325 -0.648549 0.533867 -0.670088 0.49787 -0.698611 0.460692 -0.725757 0.430497 -0.743461 0.390565 -0.768148 0.357912 -0.791654 0.315521 -0.805522 0.280408 -0.826668 0.24382 -0.837881 0.197791 -0.86483 0.150581 -0.873583 0.118419 -0.889615 0.0687497 -0.90427 0.0177038 -0.925908 4.20189 0 -0.0342273 1.1236 -0.0850765 1.11829 -0.134942 1.10363 -0.199758 1.0878 -0.246968 1.06233 -0.293194 1.0521 -0.345912 1.02416 -0.397745 1.00321 -0.439939 0.972823 -0.489116 0.949316 -0.528851 0.924629 -0.57557 0.890402 -0.612748 0.863256 -0.648745 0.834733 -0.691726 0.796867 -0.733428 0.765787 -0.76559 0.725462 -0.796572 0.691923 -0.834438 0.657105 -0.863059 0.612944 -0.890107 0.567603 -0.924334 0.53731 -0.949021 0.480953 -0.97243 0.440136 -1.00292 0.397745 -1.02387 0.346109 -1.04344 0.293293 -1.06213 0.247066 -1.08731 0.199856 -1.10334 0.134942 -1.11799 0.0850765 -1.12321 0.0342273 0 0zm-22.0177 -22.0247l4.20189 0 0 0 0.0177038 0.925908 0.0687497 0.90427 0.118419 0.889615 0.150581 0.873583 0.197791 0.86483 0.24382 0.837881 0.280408 0.826668 0.315521 0.805522 0.357912 0.791654 0.390565 0.768148 0.430497 0.743461 0.460692 0.725757 0.49787 0.698611 0.533867 0.670088 0.560325 0.648549 0.5857 0.617665 0.617862 0.593667 0.648844 0.560128 0.670383 0.525507 0.698808 0.497673 0.726052 0.468659 0.743756 0.422039 0.768443 0.398729 0.792048 0.357715 0.805817 0.315521 0.826963 0.280212 0.846536 0.243722 0.865027 0.197692 0.874075 0.150482 0.88991 0.118419 0.904565 0.0687497 0.926301 0.0177038 0 4.21586 -1.12321 -0.0342273 -1.11799 -0.0850765 -1.10334 -0.134942 -1.08731 -0.199856 -1.06213 -0.247066 -1.04344 -0.293293 -1.02387 -0.346109 -1.00292 -0.397745 -0.97243 -0.440136 -0.949021 -0.480953 -0.924334 -0.53731 -0.890107 -0.567603 -0.863059 -0.612944 -0.834438 -0.657105 -0.796572 -0.691923 -0.76559 -0.725462 -0.733428 -0.765787 -0.691726 -0.796867 -0.648745 -0.834733 -0.612748 -0.863256 -0.57557 -0.890402 -0.528851 -0.924629 -0.489116 -0.949316 -0.439939 -0.972823 -0.397745 -1.00321 -0.345912 -1.02416 -0.293194 -1.0521 -0.246968 -1.06233 -0.199758 -1.0878 -0.134942 -1.10363 -0.0850765 -1.11829 -0.0342273 -1.1236 0 0zm22.0177 -22.0247l0 4.21586 0 0 -0.926301 0.0177038 -0.904565 0.0687497 -0.88991 0.118419 -0.874075 0.150482 -0.865027 0.197692 -0.846536 0.243722 -0.826963 0.280212 -0.805817 0.315521 -0.792048 0.357715 -0.768443 0.398729 -0.743756 0.422039 -0.726052 0.468659 -0.698808 0.497673 -0.670383 0.525507 -0.648844 0.560128 -0.617862 0.593667 -0.5857 0.617665 -0.560325 0.648549 -0.533867 0.670088 -0.49787 0.698611 -0.460692 0.725757 -0.430497 0.743461 -0.390565 0.768148 -0.357912 0.791654 -0.315521 0.805522 -0.280408 0.826668 -0.24382 0.837881 -0.197791 0.86483 -0.150581 0.873583 -0.118419 0.889615 -0.0687497 0.90427 -0.0177038 0.925908 -4.20189 0 0.0342273 -1.1236 0.0850765 -1.11829 0.134942 -1.10363 0.199758 -1.0878 0.246968 -1.06233 0.293194 -1.0521 0.345912 -1.02416 0.397745 -1.00321 0.439939 -0.972823 0.489116 -0.949316 0.528851 -0.924629 0.57557 -0.890402 0.612748 -0.863256 0.648745 -0.834733 0.691726 -0.796867 0.733428 -0.765787 0.76559 -0.725462 0.796572 -0.691923 0.834438 -0.657105 0.863059 -0.612944 0.890107 -0.567603 0.924334 -0.53731 0.949021 -0.480953 0.97243 -0.440136 1.00292 -0.397745 1.02387 -0.346109 1.04344 -0.293293 1.06213 -0.247066 1.08731 -0.199856 1.10334 -0.134942 1.11799 -0.0850765 1.12321 -0.0342273 0 0z"/>
  </g>
  <g>
   <path class="fil2" d="M106.373 44.3119l-4.14977 0 0 0 -0.032752 -1.51544 -0.112911 -1.48613 -0.191299 -1.46302 -0.251492 -1.43794 -0.32575 -1.41896 -0.398237 -1.38188 -0.460593 -1.35896 -0.520786 -1.33408 -0.587372 -1.2911 -0.643828 -1.26228 -0.706381 -1.22343 -0.758804 -1.19058 -0.817325 -1.14789 -0.874075 -1.10304 -0.920597 -1.06439 -0.965053 -1.01571 -1.0159 -0.972921 -1.06469 -0.9204 -1.10334 -0.865715 -1.14809 -0.817128 -1.19087 -0.766771 -1.22372 -0.698119 -1.26257 -0.651696 -1.29946 -0.587274 -1.32631 -0.520688 -1.35926 -0.460495 -1.39044 -0.398138 -1.41925 -0.32575 -1.43824 -0.251295 -1.46341 -0.191299 -1.48653 -0.112911 -1.51574 -0.0326536 0 -4.16373 1.71028 0.0489805 1.6972 0.129238 1.67409 0.207429 1.64911 0.300276 1.6138 0.374533 1.58478 0.446922 1.5538 0.525409 1.52085 0.602125 1.47787 0.668515 1.44079 0.733133 1.40214 0.811817 1.35296 0.864338 1.31018 0.931022 1.26543 0.995936 1.21045 1.05042 1.16186 1.10314 1.11101 1.16206 1.05023 1.21074 0.987576 1.26572 0.930826 1.31038 0.872305 1.35326 0.803555 1.40243 0.741002 1.44109 0.668416 1.48623 0.602027 1.51308 0.525311 1.5541 0.446824 1.59334 0.374533 1.61409 0.300079 1.6494 0.207429 1.67448 0.129238 1.6976 0.0488821 1.71058 0 0zm-33.4248 33.4318l0 -4.16373 0 0 1.51574 -0.0326536 1.48653 -0.112911 1.46341 -0.191299 1.43824 -0.251295 1.41925 -0.32575 1.39044 -0.398138 1.35926 -0.460495 1.32631 -0.520688 1.29946 -0.587274 1.26257 -0.651696 1.22372 -0.698119 1.19087 -0.766771 1.14809 -0.817128 1.10334 -0.865715 1.06469 -0.9204 1.0159 -0.972921 0.965053 -1.01571 0.920597 -1.06439 0.874075 -1.10304 0.817325 -1.14789 0.758804 -1.19058 0.706381 -1.22343 0.643828 -1.26228 0.587372 -1.2911 0.520786 -1.33408 0.460593 -1.35896 0.398237 -1.38188 0.32575 -1.41896 0.251492 -1.43794 0.191299 -1.46302 0.112911 -1.48613 0.032752 -1.51544 4.14977 0 -0.0488821 1.71058 -0.129238 1.6976 -0.207429 1.67448 -0.300079 1.6494 -0.374533 1.61409 -0.446824 1.59334 -0.525311 1.5541 -0.602027 1.51308 -0.668416 1.48623 -0.741002 1.44109 -0.803555 1.40243 -0.872305 1.35326 -0.930826 1.31038 -0.987576 1.26572 -1.05023 1.21074 -1.11101 1.16206 -1.16186 1.10314 -1.21045 1.05042 -1.26543 0.995936 -1.31018 0.931022 -1.35296 0.864338 -1.40214 0.811817 -1.44079 0.733133 -1.47787 0.668515 -1.52085 0.602125 -1.5538 0.525409 -1.58478 0.446922 -1.6138 0.374533 -1.64911 0.300276 -1.67409 0.207429 -1.6972 0.129238 -1.71028 0.0489805 0 0zm-33.4248 -33.4318l4.14977 0 0 0 0.032752 1.51544 0.112911 1.48613 0.191299 1.46302 0.251492 1.43794 0.32575 1.41896 0.398237 1.38188 0.460593 1.35896 0.520786 1.33408 0.587372 1.2911 0.643828 1.26228 0.706381 1.22343 0.758804 1.19058 0.817325 1.14789 0.874075 1.10304 0.920597 1.06439 0.965053 1.01571 1.0159 0.972921 1.06469 0.9204 1.10334 0.865715 1.14809 0.817128 1.19087 0.766771 1.22372 0.698119 1.26257 0.651696 1.29946 0.587274 1.32631 0.520688 1.35926 0.460495 1.39044 0.398138 1.41925 0.32575 1.43824 0.251295 1.46341 0.191299 1.48653 0.112911 1.51574 0.0326536 0 4.16373 -1.71028 -0.0489805 -1.6972 -0.129238 -1.67409 -0.207429 -1.64911 -0.300276 -1.6138 -0.374533 -1.58478 -0.446922 -1.5538 -0.525409 -1.52085 -0.602125 -1.47787 -0.668515 -1.44079 -0.733133 -1.40214 -0.811817 -1.35296 -0.864338 -1.31018 -0.931022 -1.26543 -0.995936 -1.21045 -1.05042 -1.16186 -1.10314 -1.11101 -1.16206 -1.05023 -1.21074 -0.987576 -1.26572 -0.930826 -1.31038 -0.872305 -1.35326 -0.803555 -1.40243 -0.741002 -1.44109 -0.668416 -1.48623 -0.602027 -1.51308 -0.525311 -1.5541 -0.446824 -1.59334 -0.374533 -1.61409 -0.300079 -1.6494 -0.207429 -1.67448 -0.129238 -1.6976 -0.0488821 -1.71058 0 0zm33.4248 -33.4318l0 4.16373 0 0 -1.51574 0.0326536 -1.48653 0.112911 -1.46341 0.191299 -1.43824 0.251295 -1.41925 0.32575 -1.39044 0.398138 -1.35926 0.460495 -1.32631 0.520688 -1.29946 0.587274 -1.26257 0.651696 -1.22372 0.698119 -1.19087 0.766771 -1.14809 0.817128 -1.10334 0.865715 -1.06469 0.9204 -1.0159 0.972921 -0.965053 1.01571 -0.920597 1.06439 -0.874075 1.10304 -0.817325 1.14789 -0.758804 1.19058 -0.706381 1.22343 -0.643828 1.26228 -0.587372 1.2911 -0.520786 1.33408 -0.460593 1.35896 -0.398237 1.38188 -0.32575 1.41896 -0.251492 1.43794 -0.191299 1.46302 -0.112911 1.48613 -0.032752 1.51544 -4.14977 0 0.0488821 -1.71058 0.129238 -1.6976 0.207429 -1.67448 0.300079 -1.6494 0.374533 -1.61409 0.446824 -1.59334 0.525311 -1.5541 0.602027 -1.51308 0.668416 -1.48623 0.741002 -1.44109 0.803555 -1.40243 0.872305 -1.35326 0.930826 -1.31038 0.987576 -1.26572 1.05023 -1.21074 1.11101 -1.16206 1.16186 -1.10314 1.21045 -1.05042 1.26543 -0.995936 1.31018 -0.931022 1.35296 -0.864338 1.40214 -0.811817 1.44079 -0.733133 1.47787 -0.668515 1.52085 -0.602125 1.5538 -0.525409 1.58478 -0.446922 1.6138 -0.374533 1.64911 -0.300276 1.67409 -0.207429 1.6972 -0.129238 1.71028 -0.0489805 0 0z"/>
  </g>
  <g>
   <path class="fil3" d="M117.246 44.3119l-8.45375 0 0 0 -0.0356043 -1.86293 -0.138286 -1.81936 -0.238313 -1.78966 -0.302931 -1.75779 -0.39804 -1.73979 -0.490493 -1.68599 -0.564062 -1.66298 -0.634976 -1.62068 -0.720052 -1.59275 -0.78595 -1.54554 -0.86601 -1.49577 -0.926695 -1.46027 -1.00174 -1.40529 -1.07413 -1.34824 -1.12744 -1.30487 -1.17829 -1.24261 -1.2431 -1.19442 -1.30556 -1.12694 -1.34863 -1.05721 -1.40598 -1.00135 -1.46066 -0.943022 -1.49646 -0.848995 -1.54613 -0.802178 -1.59334 -0.719757 -1.62147 -0.634779 -1.66366 -0.563767 -1.7032 -0.490296 -1.74038 -0.397843 -1.75838 -0.302833 -1.79054 -0.238214 -1.81995 -0.138286 -1.86362 -0.0356043 0 -8.48188 2.25979 0.0686513 2.24936 0.171333 2.21976 0.271458 2.18779 0.402171 2.13655 0.497181 2.09957 0.589831 2.05984 0.696349 2.01784 0.800408 1.95646 0.885386 1.90945 0.967807 1.85959 1.08091 1.79093 1.14189 1.73625 1.23327 1.67891 1.32218 1.60259 1.39211 1.54033 1.45938 1.47551 1.54082 1.39162 1.60308 1.30526 1.6795 1.23287 1.73674 1.15802 1.79152 1.0641 1.86027 0.984035 1.91004 0.885091 1.95705 0.800211 2.01843 0.696054 2.06052 0.589634 2.11678 0.496985 2.13734 0.402073 2.18838 0.27136 2.22045 0.171333 2.25015 0.0686513 2.26048 0 0zm-44.2978 44.3119l0 -8.48188 0 0 1.86362 -0.0356043 1.81995 -0.138286 1.79054 -0.238214 1.75838 -0.302833 1.74038 -0.397843 1.7032 -0.490296 1.66366 -0.563767 1.62147 -0.634779 1.59334 -0.719757 1.54613 -0.802178 1.49646 -0.848995 1.46066 -0.943022 1.40598 -1.00135 1.34863 -1.05721 1.30556 -1.12694 1.2431 -1.19442 1.17829 -1.24261 1.12744 -1.30487 1.07413 -1.34824 1.00174 -1.40529 0.926695 -1.46027 0.86601 -1.49577 0.78595 -1.54554 0.720052 -1.59275 0.634976 -1.62068 0.564062 -1.66298 0.490493 -1.68599 0.39804 -1.73979 0.302931 -1.75779 0.238313 -1.78966 0.138286 -1.81936 0.0356043 -1.86293 8.45375 0 -0.0686513 2.26048 -0.171333 2.25015 -0.27136 2.22045 -0.402073 2.18838 -0.496985 2.13734 -0.589634 2.11678 -0.696054 2.06052 -0.800211 2.01843 -0.885091 1.95705 -0.984035 1.91004 -1.0641 1.86027 -1.15802 1.79152 -1.23287 1.73674 -1.30526 1.6795 -1.39162 1.60308 -1.47551 1.54082 -1.54033 1.45938 -1.60259 1.39211 -1.67891 1.32218 -1.73625 1.23327 -1.79093 1.14189 -1.85959 1.08091 -1.90945 0.967807 -1.95646 0.885386 -2.01784 0.800408 -2.05984 0.696349 -2.09957 0.589831 -2.13655 0.497181 -2.18779 0.402171 -2.21976 0.271458 -2.24936 0.171333 -2.25979 0.0686513 0 0zm-44.2978 -44.3119l8.45375 0 0 0 0.0356043 1.86293 0.138286 1.81936 0.238313 1.78966 0.302931 1.75779 0.39804 1.73979 0.490493 1.68599 0.564062 1.66298 0.634976 1.62068 0.720052 1.59275 0.78595 1.54554 0.86601 1.49577 0.926695 1.46027 1.00174 1.40529 1.07413 1.34824 1.12744 1.30487 1.17829 1.24261 1.2431 1.19442 1.30556 1.12694 1.34863 1.05721 1.40598 1.00135 1.46066 0.943022 1.49646 0.848995 1.54613 0.802178 1.59334 0.719757 1.62147 0.634779 1.66366 0.563767 1.7032 0.490296 1.74038 0.397843 1.75838 0.302833 1.79054 0.238214 1.81995 0.138286 1.86362 0.0356043 0 8.48188 -2.25979 -0.0686513 -2.24936 -0.171333 -2.21976 -0.271458 -2.18779 -0.402171 -2.13655 -0.497181 -2.09957 -0.589831 -2.05984 -0.696349 -2.01784 -0.800408 -1.95646 -0.885386 -1.90945 -0.967807 -1.85959 -1.08091 -1.79093 -1.14189 -1.73625 -1.23327 -1.67891 -1.32218 -1.60259 -1.39211 -1.54033 -1.45938 -1.47551 -1.54082 -1.39162 -1.60308 -1.30526 -1.6795 -1.23287 -1.73674 -1.15802 -1.79152 -1.0641 -1.86027 -0.984035 -1.91004 -0.885091 -1.95705 -0.800211 -2.01843 -0.696054 -2.06052 -0.589634 -2.11678 -0.496985 -2.13734 -0.402073 -2.18838 -0.27136 -2.22045 -0.171333 -2.25015 -0.0686513 -2.26048 0 0zm44.2978 -44.3119l0 8.48188 0 0 -1.86362 0.0356043 -1.81995 0.138286 -1.79054 0.238214 -1.75838 0.302833 -1.74038 0.397843 -1.7032 0.490296 -1.66366 0.563767 -1.62147 0.634779 -1.59334 0.719757 -1.54613 0.802178 -1.49646 0.848995 -1.46066 0.943022 -1.40598 1.00135 -1.34863 1.05721 -1.30556 1.12694 -1.2431 1.19442 -1.17829 1.24261 -1.12744 1.30487 -1.07413 1.34824 -1.00174 1.40529 -0.926695 1.46027 -0.86601 1.49577 -0.78595 1.54554 -0.720052 1.59275 -0.634976 1.62068 -0.564062 1.66298 -0.490493 1.68599 -0.39804 1.73979 -0.302931 1.75779 -0.238313 1.78966 -0.138286 1.81936 -0.0356043 1.86293 -8.45375 0 0.0686513 -2.26048 0.171333 -2.25015 0.27136 -2.22045 0.402073 -2.18838 0.496985 -2.13734 0.589634 -2.11678 0.696054 -2.06052 0.800211 -2.01843 0.885091 -1.95705 0.984035 -1.91004 1.0641 -1.86027 1.15802 -1.79152 1.23287 -1.73674 1.30526 -1.6795 1.39162 -1.60308 1.47551 -1.54082 1.54033 -1.45938 1.60259 -1.39211 1.67891 -1.32218 1.73625 -1.23327 1.79093 -1.14189 1.85959 -1.08091 1.90945 -0.967807 1.95646 -0.885386 2.01784 -0.800408 2.05984 -0.696349 2.09957 -0.589831 2.13655 -0.497181 2.18779 -0.402171 2.21976 -0.271458 2.24936 -0.171333 2.25979 -0.0686513 0 0z"/>
  </g>
  <path class="fil4 str0" d="M74.1826 68.5789l0.527278 27.9471 0.905057 0 0 -8.14689 2.02777 -3.08626 7.16944 0 2.10596 2.88473 0 -7.6023 0.815456 -1.43774 0 -8.69718 0.349453 0 0 -3.84428 0.582455 0 2.62114 -13.7994 2.62105 13.7994 0.582553 0 0 3.84428 0.349453 0 0 8.69718 0.815456 1.43774 0 11.4297 5.01509 0 0 -3.92178 -0.879878 -0.847519 0 -0.514688 0 -4.02555 0 -0.514688 0.257393 0 -0.0292112 0.514688 2.0022 0 4.2493 -2.43889 0 -1.4879 -0.817521 0c1.18547,0 0.50859,-2.84913 2.27818,-3.50328l0 -1.2311 -0.256902 0 1.05092 -3.7833 1.05092 3.7833 -0.256902 0 0 1.2311c1.76949,0.654155 1.09262,3.50328 2.27808,3.50328l-0.817521 0 0 1.48781 4.2493 2.43899 2.0023 0 -0.0292112 -0.514688 0.257295 0 0 0.514688 0 4.02555 0 0.514688 -0.87978 0.847519 0 6.80986c2.28684,0.393221 4.29386,0.952759 5.88956,1.63298l9.53939 0 0 -1.19658 3.21678 0 0 -10.8608 -3.25209 0 0 -1.04177 3.25209 0 0 -0.681694 -1.90886 0 0 -4.31254 0.883714 0 0 -0.486854 -0.883714 0 0 -0.98974 2.93401 0 0 -5.23963 0.424202 0 0 5.23963 2.93391 0 0 0.98974 -0.883714 0 0 0.486854 0.883714 0 0 4.31254 -1.90886 0 0 0.681694 3.25209 0 0 1.04177 -3.25209 0 0 10.8608 3.21678 0 0 1.19658 6.43739 0 0 1.46676 -133.974 0 0 -1.46676 4.91791 0 0 -0.293784 0 -0.858929 2.06682 0c4.51456,-4.01679 5.54964,-21.1725 5.54964,-30.3038l1.18114 0 0 -6.30963 7.30242 0 0 36.6134 1.07246 0 0 1.15271 1.10068 0 0 -10.9475 9.13151 0 2.79956 -10.0146 -1.01344 -0.0989445 0 -9.71112 4.85556 0 8.34133 5.09161 0 -1.27025 3.14183 0.209495 0 1.32542 -0.732445 -0.0488821 0 1.255 0.53131 0.324274 0 2.82444 0 0.788704 0 0.786835 0 19.4856 1.39909 0 0 -4.23543 6.44113 0 0.447414 -23.7117c-3.43394,-0.207134 -6.0486,-1.26267 -6.0486,-2.53361l0 -2.06938 6.27825 0 0.0228182 -1.84041 -5.40851 0 0 -0.856863 5.41913 0 0.0211462 -1.70035 -4.54771 0 0 -0.856863 4.55833 0 0.0186873 -1.50364 -3.64875 0 0 -0.856863 3.65937 0 0.267917 -21.5911 0.393417 0 0 -10.576 0.534851 0 0 10.576 0.357026 0 0.267917 21.5911 3.65937 0 0 0.856863 -3.64875 0 0.0186873 1.50364 4.55833 0 0 0.856863 -4.54771 0 0.0211462 1.70035 5.41913 0 0 0.856863 -5.40851 0 0.0228182 1.84041 6.27825 0 0 2.06938c0,1.27093 -2.61465,2.32647 -6.0486,2.53361zm-13.1849 27.9471l-4.26819 0 -5.78776 -20.7044 10.0559 0.981773 0 19.7226zm-6.41172 0l-8.21898 0 0 -6.37464 3.21855 -11.5138 5.00043 17.8884zm6.00021 -25.6187l1.088 0.664089 0 -0.591601 -1.088 -0.0724872z"/>
 </g>
</svg>
