<?xml version="1.0" encoding="UTF-8" standalone="no"?>
<!-- Generator: Adobe Illustrator 18.0.0, SVG Export Plug-In . SVG Version: 6.00 Build 0)  -->

<svg
   xmlns:dc="http://purl.org/dc/elements/1.1/"
   xmlns:cc="http://creativecommons.org/ns#"
   xmlns:rdf="http://www.w3.org/1999/02/22-rdf-syntax-ns#"
   xmlns:svg="http://www.w3.org/2000/svg"
   xmlns="http://www.w3.org/2000/svg"
   xmlns:sodipodi="http://sodipodi.sourceforge.net/DTD/sodipodi-0.dtd"
   xmlns:inkscape="http://www.inkscape.org/namespaces/inkscape"
   version="1.1"
   id="Layer_1"
   x="0px"
   y="0px"
   viewBox="0 0 720 540"
   enable-background="new 0 0 720 540"
   xml:space="preserve"
   inkscape:version="0.91 r13725"
   sodipodi:docname="Freifunkk_nord_Logo.svg"><metadata
     id="metadata109"><rdf:RDF><cc:Work
         rdf:about=""><dc:format>image/svg+xml</dc:format><dc:type
           rdf:resource="http://purl.org/dc/dcmitype/StillImage" /><dc:title></dc:title></cc:Work></rdf:RDF></metadata><defs
     id="defs107" /><sodipodi:namedview
     pagecolor="#ffffff"
     bordercolor="#666666"
     borderopacity="1"
     objecttolerance="10"
     gridtolerance="10"
     guidetolerance="10"
     inkscape:pageopacity="0"
     inkscape:pageshadow="2"
     inkscape:window-width="3098"
     inkscape:window-height="1752"
     id="namedview105"
     showgrid="false"
     inkscape:zoom="1.7481481"
     inkscape:cx="492.87654"
     inkscape:cy="301.07159"
     inkscape:window-x="102"
     inkscape:window-y="48"
     inkscape:window-maximized="1"
     inkscape:current-layer="Layer_1" /><g
     id="g3"
     transform="matrix(1.4461189,0,0,1.4461189,-112.21614,-70.375496)"><g
       id="g5"><polyline
         points="311.7,311.3 359.5,287.4 407.9,311.3 359.8,182.8   "
         id="polyline7"
         style="fill:#fbb317" /></g><g
       id="g9"><polyline
         points="351.1,139.8 359.8,158.4 359.8,158.4 368.4,139.8   "
         id="polyline11"
         style="fill:#db1868" /></g><g
       id="g13"><polyline
         points="368.4,364.1 359.8,342.4 359.8,342.4 351.1,364.1   "
         id="polyline15"
         style="fill:#db1868" /></g><g
       id="g17"><polyline
         points="248.8,260.3 266.6,251.7 266.6,251.7 248.8,243.1   "
         id="polyline19"
         style="fill:#db1868" /></g><g
       id="g21"><polyline
         points="471,243.1 453.3,251.7 453.3,251.7 471,260.3   "
         id="polyline23"
         style="fill:#db1868" /></g><g
       id="g25"><path
         d="m 359.8,389.7 c -75.8,0 -137.4,-61.9 -137.4,-138 0,-76.1 61.7,-138 137.4,-138 75.8,0 137.5,61.9 137.5,138 0,76.1 -61.7,138 -137.5,138 z m 0,-249.2 c -61.1,0 -110.7,49.9 -110.7,111.2 0,61.3 49.7,111.2 110.7,111.2 61.1,0 110.8,-49.9 110.8,-111.2 -0.1,-61.3 -49.7,-111.2 -110.8,-111.2 z"
         id="path27"
         inkscape:connector-curvature="0"
         style="fill:#dc1769" /></g><g
       id="g29"><path
         d="m 359.6,404.8 0,0 c -84.3,-0.1 -152.9,-69 -152.9,-153.6 0,-84.7 68.6,-153.6 152.9,-153.6 84.3,0 152.9,68.9 152.9,153.6 0,84.7 -68.6,153.6 -152.9,153.6 z m 0,-302.8 c -81.9,0 -148.5,66.9 -148.5,149.2 0,82.2 66.6,149.1 148.5,149.2 81.9,0 148.5,-66.9 148.5,-149.2 C 508.1,168.9 441.5,102 359.6,102 Z"
         id="path31"
         inkscape:connector-curvature="0"
         style="fill:#dc1769" /></g><g
       id="g33"><path
         d="m 513.7,143.3 c -20.9,0 -37.9,-17 -37.9,-38 0,-21 17,-38 37.9,-38 20.9,0 37.9,17 37.9,38 0,21 -17,38 -37.9,38 z m 0,-69 c -17,0 -30.9,13.9 -30.9,31 0,17.1 13.9,31 30.9,31 17,0 30.9,-13.9 30.9,-31 0,-17.1 -13.9,-31 -30.9,-31 z"
         id="path35"
         inkscape:connector-curvature="0"
         style="fill:#dc1769" /></g><g
       id="g37"><path
         d="m 513.7,131.3 c -14.3,0 -25.9,-11.7 -25.9,-26 0,-14.3 11.6,-26 25.9,-26 14.3,0 25.9,11.7 25.9,26 0,14.3 -11.6,26 -25.9,26 z m 0,-49 c -12.6,0 -22.9,10.3 -22.9,23 0,12.7 10.3,23 22.9,23 12.6,0 22.9,-10.3 22.9,-23 0,-12.7 -10.3,-23 -22.9,-23 z"
         id="path39"
         inkscape:connector-curvature="0"
         style="fill:#dc1769" /></g><g
       id="g41"><path
         d="m 539.6,376.5 c -17.7,0 -32.1,-14.5 -32.1,-32.4 0,-17.9 14.5,-32.4 32.3,-32.4 17.8,0 32.3,14.5 32.3,32.4 0,17.9 -14.5,32.4 -32.3,32.4 l -0.2,0 z m 0.2,-58.8 c -14.5,0 -26.3,11.8 -26.3,26.4 0,14.6 11.7,26.4 26.1,26.4 l 0.2,0 c 14.5,0 26.3,-11.8 26.3,-26.4 0,-14.6 -11.8,-26.4 -26.3,-26.4 z"
         id="path43"
         inkscape:connector-curvature="0"
         style="fill:#dc1769" /></g><g
       id="g45"><path
         d="m 539.5,366.6 c -12,0 -21.8,-9.9 -21.8,-22.1 0,-12.2 9.9,-22.1 22,-22.1 12.1,0 22,9.9 22,22.1 0,12.2 -9.9,22.1 -22,22.1 l -0.2,0 z m 0.2,-42.2 c -11,0 -20,9 -20,20.1 0,11.1 8.9,20.1 19.8,20.1 l 0.2,0 c 11,0 20,-9 20,-20.1 0,-11.1 -9,-20.1 -20,-20.1 z"
         id="path47"
         inkscape:connector-curvature="0"
         style="fill:#dc1769" /></g><g
       id="g49"><path
         d="M 137.6,395.5 C 106.4,395.5 81,370 81,338.7 c 0,-31.3 25.4,-56.8 56.6,-56.8 31.2,0 56.6,25.5 56.6,56.8 0,31.3 -25.4,56.8 -56.6,56.8 z m 0,-103.6 c -25.7,0 -46.6,21 -46.6,46.8 0,25.8 20.9,46.8 46.6,46.8 25.7,0 46.6,-21 46.6,-46.8 0,-25.8 -20.9,-46.8 -46.6,-46.8 z"
         id="path51"
         inkscape:connector-curvature="0"
         style="fill:#dc1769" /></g><g
       id="g53"><path
         d="m 138,380.7 c -22.9,0 -41.5,-18.7 -41.5,-41.7 0,-23 18.6,-41.7 41.5,-41.7 22.9,0 41.5,18.7 41.5,41.7 0,23 -18.6,41.7 -41.5,41.7 z m 0,-80.4 c -21.2,0 -38.5,17.4 -38.5,38.7 0,21.3 17.3,38.7 38.5,38.7 21.2,0 38.5,-17.4 38.5,-38.7 0,-21.3 -17.3,-38.7 -38.5,-38.7 z"
         id="path55"
         inkscape:connector-curvature="0"
         style="fill:#dc1769" /></g><g
       id="g57"><rect
         x="492.79999"
         y="322.29999"
         transform="matrix(0.8935,0.449,-0.449,0.8935,199.9275,-191.5594)"
         width="22"
         height="7"
         id="rect59"
         style="fill:#dc1769" /></g><g
       id="g61"><rect
         x="198.10001"
         y="292.29999"
         transform="matrix(0.3979,0.9174,-0.9174,0.3979,407.5778,2.1512)"
         width="8"
         height="38.700001"
         id="rect63"
         style="fill:#dc1769" /></g><g
       id="g65"><rect
         x="474.10001"
         y="122.9"
         transform="matrix(0.6688,0.7434,-0.7434,0.6688,259.0068,-310.1936)"
         width="7"
         height="25.4"
         id="rect67"
         style="fill:#dc1769" /></g></g></svg>