<?xml version="1.0" encoding="UTF-8" standalone="no"?>
<svg
   xmlns:dc="http://purl.org/dc/elements/1.1/"
   xmlns:cc="http://creativecommons.org/ns#"
   xmlns:rdf="http://www.w3.org/1999/02/22-rdf-syntax-ns#"
   xmlns:svg="http://www.w3.org/2000/svg"
   xmlns="http://www.w3.org/2000/svg"
   xmlns:sodipodi="http://sodipodi.sourceforge.net/DTD/sodipodi-0.dtd"
   xmlns:inkscape="http://www.inkscape.org/namespaces/inkscape"
   version="1.2"
   width="170px"
   height="165px"
   viewBox="0 0 170 165"
   preserveAspectRatio="none"
   id="svg2"
   inkscape:version="0.48.4 r9939"
   sodipodi:docname="Freifunk-logo.svg">
  <metadata
     id="metadata50">
    <rdf:RDF>
      <cc:Work
         rdf:about="">
        <dc:format>image/svg+xml</dc:format>
        <dc:type
           rdf:resource="http://purl.org/dc/dcmitype/StillImage" />
        <dc:title></dc:title>
      </cc:Work>
    </rdf:RDF>
  </metadata>
  <defs
     id="defs48" />
  <sodipodi:namedview
     pagecolor="#ffffff"
     bordercolor="#666666"
     borderopacity="1"
     objecttolerance="10"
     gridtolerance="10"
     guidetolerance="10"
     inkscape:pageopacity="0"
     inkscape:pageshadow="2"
     inkscape:window-width="2001"
     inkscape:window-height="1183"
     id="namedview46"
     showgrid="false"
     inkscape:zoom="1.430303"
     inkscape:cx="85"
     inkscape:cy="82.5"
     inkscape:window-x="86"
     inkscape:window-y="48"
     inkscape:window-maximized="0"
     inkscape:current-layer="svg2" />
  <!-- Designed by Monic Meisel and hand-coded as SVG by Alina Friedrichsen -->
  <g
     id="g4">
    <rect
       x="0"
       y="0"
       width="170"
       height="165"
       fill="#ffffff"
       fill-opacity="1"
       stroke="none"
       id="rect6" />
  </g>
  <g
     id="g8">
    <circle
       cx="36"
       cy="54"
       r="22"
       transform="matrix(1.477616,0,0,1.5065066,-3.122124,-2.4350016)"
       fill="none"
       stroke="#de2c68"
       stroke-width="1.14544892"
       stroke-miterlimit="4"
       stroke-opacity="1"
       stroke-dasharray="none"
       id="circle10" />
    <circle
       cx="74"
       cy="44"
       r="22"
       transform="matrix(1.5950476,0,0,1.6223254,-10.072136,-9.1778182)"
       fill="none"
       stroke="#de2c68"
       stroke-width="1.06239557"
       stroke-miterlimit="4"
       stroke-opacity="1"
       stroke-dasharray="none"
       id="circle12" />
    <circle
       cx="74"
       cy="44"
       r="29"
       transform="matrix(1.5831269,0,0,1.5986441,-9.3397104,-8.1360194)"
       fill="none"
       stroke="#de2c68"
       stroke-width="5.81192684"
       stroke-miterlimit="4"
       stroke-opacity="1"
       stroke-dasharray="none"
       id="circle14" />
    <polygon
       points="31,44 26,44 30,48 22,48 22,52 30,52 26,56 31,56 37,50 "
       transform="matrix(1.4493674,0,0,1.3737988,-2.70016,2.5042672)"
       fill="#ffcc33"
       fill-opacity="1"
       id="polygon16" />
    <polygon
       points="81,59 75,53 88,53 88,47 75,47 81,41 73,41 64,50 73,59 "
       transform="matrix(1.5159598,0,0,1.568926,-5.2784314,-7.233634)"
       fill="#ffcc33"
       fill-opacity="1"
       id="polygon18" />
  </g>
</svg>
