<?xml version="1.0" encoding="UTF-8" standalone="no"?>
<!-- Created with Inkscape (http://www.inkscape.org/) -->
<svg xmlns:dc="http://purl.org/dc/elements/1.1/" xmlns:cc="http://creativecommons.org/ns#" xmlns:rdf="http://www.w3.org/1999/02/22-rdf-syntax-ns#" xmlns:svg="http://www.w3.org/2000/svg" xmlns="http://www.w3.org/2000/svg" xmlns:sodipodi="http://sodipodi.sourceforge.net/DTD/sodipodi-0.dtd" xmlns:inkscape="http://www.inkscape.org/namespaces/inkscape" width="658.0224" height="307.88535" id="svg2869" version="1.1" inkscape:version="0.48.4 r9939" sodipodi:docname="freifunk-bs-logo.svg">
  <defs id="defs2871">
    <inkscape:path-effect effect="spiro" id="path-effect5523" is_visible="true"/>
    <inkscape:path-effect effect="spiro" id="path-effect5517" is_visible="true"/>
    <inkscape:path-effect effect="spiro" id="path-effect5104" is_visible="true"/>
    <inkscape:path-effect is_visible="true" id="path-effect5100" effect="spiro"/>
    <inkscape:path-effect effect="spiro" id="path-effect5096" is_visible="true"/>
    <inkscape:perspective sodipodi:type="inkscape:persp3d" inkscape:vp_x="0 : 526.18109 : 1" inkscape:vp_y="0 : 1000 : 0" inkscape:vp_z="744.09448 : 526.18109 : 1" inkscape:persp3d-origin="372.04724 : 350.78739 : 1" id="perspective2877"/>
    <inkscape:perspective id="perspective2887" inkscape:persp3d-origin="0.5 : 0.33333333 : 1" inkscape:vp_z="1 : 0.5 : 1" inkscape:vp_y="0 : 1000 : 0" inkscape:vp_x="0 : 0.5 : 1" sodipodi:type="inkscape:persp3d"/>
    <inkscape:path-effect effect="spiro" id="path-effect2972" is_visible="true"/>
    <inkscape:path-effect effect="spiro" id="path-effect2976" is_visible="true"/>
    <inkscape:path-effect effect="spiro" id="path-effect2980" is_visible="true"/>
    <inkscape:path-effect effect="spiro" id="path-effect2984" is_visible="true"/>
    <inkscape:path-effect effect="spiro" id="path-effect2988" is_visible="true"/>
    <inkscape:path-effect effect="spiro" id="path-effect2992" is_visible="true"/>
    <inkscape:path-effect is_visible="true" id="path-effect4952" effect="spiro"/>
    <inkscape:path-effect effect="spiro" id="path-effect4950" is_visible="true"/>
    <inkscape:path-effect is_visible="true" id="path-effect4723" effect="spiro"/>
    <inkscape:path-effect effect="spiro" id="path-effect3258" is_visible="true"/>
    <inkscape:path-effect is_visible="true" id="path-effect3098" effect="spiro"/>
    <inkscape:path-effect effect="spiro" id="path-effect3146" is_visible="true"/>
    <inkscape:path-effect effect="spiro" id="path-effect3142" is_visible="true"/>
    <inkscape:path-effect effect="spiro" id="path-effect3138" is_visible="true"/>
    <inkscape:path-effect effect="spiro" id="path-effect3134" is_visible="true"/>
    <inkscape:path-effect effect="spiro" id="path-effect3130" is_visible="true"/>
    <inkscape:path-effect effect="spiro" id="path-effect3126" is_visible="true"/>
    <inkscape:path-effect effect="spiro" id="path-effect3122" is_visible="true"/>
    <inkscape:path-effect effect="spiro" id="path-effect3118" is_visible="true"/>
    <inkscape:path-effect effect="spiro" id="path-effect3114" is_visible="true"/>
    <inkscape:path-effect effect="spiro" id="path-effect3110" is_visible="true"/>
    <inkscape:path-effect effect="spiro" id="path-effect3102" is_visible="true"/>
    <inkscape:path-effect is_visible="true" id="path-effect3291" effect="spiro"/>
    <inkscape:path-effect is_visible="true" id="path-effect2992-9" effect="spiro"/>
    <inkscape:path-effect is_visible="true" id="path-effect2988-9" effect="spiro"/>
    <inkscape:path-effect is_visible="true" id="path-effect2984-7" effect="spiro"/>
    <inkscape:path-effect is_visible="true" id="path-effect2980-8" effect="spiro"/>
    <inkscape:path-effect is_visible="true" id="path-effect2976-7" effect="spiro"/>
    <inkscape:path-effect is_visible="true" id="path-effect2972-7" effect="spiro"/>
    <inkscape:perspective sodipodi:type="inkscape:persp3d" inkscape:vp_x="0 : 0.5 : 1" inkscape:vp_y="0 : 1000 : 0" inkscape:vp_z="1 : 0.5 : 1" inkscape:persp3d-origin="0.5 : 0.33333333 : 1" id="perspective2887-6"/>
    <inkscape:perspective id="perspective2877-5" inkscape:persp3d-origin="372.04724 : 350.78739 : 1" inkscape:vp_z="744.09448 : 526.18109 : 1" inkscape:vp_y="0 : 1000 : 0" inkscape:vp_x="0 : 526.18109 : 1" sodipodi:type="inkscape:persp3d"/>
    <inkscape:path-effect effect="spiro" id="path-effect5523-8" is_visible="true"/>
    <inkscape:path-effect effect="spiro" id="path-effect5523-8-8" is_visible="true"/>
  </defs>
  <sodipodi:namedview id="base" pagecolor="#ffffff" bordercolor="#ffffff" borderopacity="0.0" inkscape:pageopacity="1" inkscape:pageshadow="0" inkscape:zoom="1" inkscape:cx="280.71858" inkscape:cy="105.41646" inkscape:document-units="px" inkscape:current-layer="layer1" showgrid="false" showborder="true" inkscape:window-width="1152" inkscape:window-height="875" inkscape:window-x="0" inkscape:window-y="25" inkscape:window-maximized="0" showguides="true" inkscape:guide-bbox="true" fit-margin-top="0" fit-margin-left="0" fit-margin-right="0" fit-margin-bottom="0"/>
  <metadata id="metadata2874">
    <rdf:RDF>
      <cc:Work rdf:about="">
        <dc:format>image/svg+xml</dc:format>
        <dc:type rdf:resource="http://purl.org/dc/dcmitype/StillImage"/>
        <dc:title/>
      </cc:Work>
    </rdf:RDF>
  </metadata>
  <g inkscape:label="Layer 1" inkscape:groupmode="layer" id="layer1" transform="translate(-10.894098,-1722.8989)">
    <rect y="1929.8572" x="10.894098" height="100.92705" width="657.92328" id="rect5154" style="fill:#1a181d;fill-opacity:1;fill-rule:nonzero;stroke:none" inkscape:export-filename="/home/seb/work/freifunk-bs-logo/freifunk-bs-logo.png" inkscape:export-xdpi="600.03082" inkscape:export-ydpi="600.03082"/>
    <g transform="matrix(1.2651357,0,0,1.2651357,20.988855,1924.8133)" id="g3" style="fill:#ffffff" inkscape:export-filename="/home/seb/work/freifunk-bs-logo/freifunk-bs-logo.png" inkscape:export-xdpi="600.03082" inkscape:export-ydpi="600.03082">
      <path inkscape:connector-curvature="0" d="M 8.9191419,67.4 V 22 h 8.0000001 v 12.1 h 0.1 c 0.6,-1.3 1.4,-2.2 2.3,-2.8 0.9,-0.6 2,-0.9 3.3,-0.9 1.7,0 3.1,0.5 3.9,1.6 0.9,1 1.3,2.6 1.3,4.6 v 25.6 c 0,2 -0.4,3.6 -1.3,4.6 -0.9,1 -2.2,1.5 -3.9,1.5 -1.4,0 -2.5,-0.3 -3.5,-1 -1,-0.7 -1.7,-1.7 -2.3,-3 h -0.1 v 3.1 H 8.9191419 z M 19.819142,59.5 V 39.2 c 0,-0.8 -0.1,-1.4 -0.3,-1.7 -0.2,-0.3 -0.6,-0.4 -1.1,-0.4 -0.5,0 -0.9,0.2 -1.1,0.5 -0.2,0.3 -0.4,0.9 -0.4,1.6 v 20.3 c 0,0.7 0.1,1.3 0.4,1.7 0.2,0.4 0.6,0.6 1.1,0.6 0.5,0 0.9,-0.2 1.1,-0.5 0.2,-0.4 0.3,-1 0.3,-1.8 z" id="path5" style="fill:#ffffff"/>
      <path inkscape:connector-curvature="0" d="M 30.419142,67.4 V 31 h 7.9 v 3.1 h 0.1 c 0.7,-1.3 1.5,-2.2 2.4,-2.8 0.9,-0.6 2,-0.9 3.3,-0.9 1.7,0 3.1,0.5 3.9,1.6 0.9,1 1.3,2.6 1.3,4.6 v 14.1 h -8.1 V 39.2 c 0,-0.8 -0.1,-1.4 -0.3,-1.7 -0.2,-0.3 -0.6,-0.4 -1.1,-0.4 -0.5,0 -0.9,0.2 -1.1,0.5 -0.2,0.3 -0.4,0.9 -0.4,1.6 v 28.2 h -7.9 z" id="path7" style="fill:#ffffff"/>
      <path inkscape:connector-curvature="0" d="m 51.67806,38.5 c 0,-2.8 0.8,-4.8 2.4,-6.2 1.6,-1.4 4,-2.1 7.1,-2.1 3.4,0 5.8,0.8 7.3,2.3 1.4,1.6 2.2,4.2 2.2,8 v 22.1 c 0,1 0,1.8 0.1,2.6 0.1,0.8 0.2,1.5 0.4,2.2 h -8.1 c -0.1,-0.4 -0.2,-0.9 -0.2,-1.3 -0.1,-0.4 -0.1,-0.8 -0.1,-1.2 v -0.6 h -0.1 c -0.6,1.2 -1.4,2.1 -2.3,2.7 -1,0.6 -2.1,1 -3.4,1 -1.7,0 -3,-0.5 -3.9,-1.5 -0.9,-1 -1.3,-2.5 -1.3,-4.6 v -7.7 c 0,-1.9 0.3,-3.5 1,-4.7 0.7,-1.2 1.8,-2.2 3.3,-3 0.5,-0.3 1.2,-0.6 2.1,-1.1 3,-1.5 4.5,-3 4.5,-4.4 v -2.6 c 0,-0.8 -0.1,-1.3 -0.4,-1.7 -0.2,-0.3 -0.6,-0.5 -1.2,-0.5 -0.5,0 -0.8,0.2 -1.1,0.5 -0.2,0.3 -0.3,0.9 -0.3,1.7 v 5.3 h -8.1 v -5.2 z m 11,20.7 v -9.7 c -0.1,0.1 -0.3,0.2 -0.5,0.4 -1.6,1.2 -2.4,2.3 -2.4,3.3 v 6 c 0,0.8 0.1,1.4 0.3,1.7 0.2,0.3 0.6,0.4 1.1,0.4 0.5,0 0.9,-0.2 1.1,-0.5 0.3,-0.3 0.4,-0.8 0.4,-1.6 z" id="path9" style="fill:#ffffff"/>
      <path inkscape:connector-curvature="0" d="m 92.27806,31 v 36.4 h -7.9 v -3 h -0.2 c -0.7,1.3 -1.5,2.2 -2.4,2.8 -0.9,0.6 -2,0.9 -3.3,0.9 -1.7,0 -3.1,-0.5 -3.9,-1.5 -0.8,-1 -1.3,-2.5 -1.3,-4.6 V 31 h 8 v 28.2 c 0,0.8 0.1,1.4 0.4,1.7 0.2,0.3 0.6,0.5 1.2,0.5 0.5,0 0.8,-0.2 1.1,-0.5 0.2,-0.3 0.3,-0.9 0.3,-1.6 V 31 h 8 z" id="path11" style="fill:#ffffff"/>
      <path inkscape:connector-curvature="0" d="M 94.77806,67.4 V 31 h 7.9 v 3.1 h 0.1 c 0.7,-1.3 1.5,-2.2 2.4,-2.8 0.9,-0.6 2,-0.9 3.3,-0.9 1.7,0 3.1,0.5 3.9,1.6 0.9,1 1.3,2.6 1.3,4.6 v 30.9 h -8.1 V 39.2 c 0,-0.8 -0.1,-1.4 -0.3,-1.7 -0.2,-0.3 -0.6,-0.4 -1.1,-0.4 -0.5,0 -0.9,0.2 -1.1,0.5 -0.2,0.3 -0.4,0.9 -0.4,1.6 v 28.2 h -7.9 z" id="path13" style="fill:#ffffff"/>
      <path inkscape:connector-curvature="0" d="m 134.7986,59.9 c 0,2.7 -0.8,4.8 -2.4,6.2 -1.6,1.4 -4,2.2 -7,2.2 -3,0 -5.3,-0.7 -7,-2.2 -1.7,-1.5 -2.5,-3.5 -2.5,-6.1 v -6.8 h 8.1 V 60 c 0,0.8 0.1,1.4 0.3,1.7 0.2,0.3 0.6,0.5 1.1,0.5 0.5,0 0.9,-0.2 1.1,-0.5 0.2,-0.3 0.3,-0.9 0.3,-1.7 v -3.3 c 0,-1.5 -1.3,-3.3 -4,-5.4 -0.6,-0.5 -1,-0.8 -1.4,-1.1 l -0.1,-0.1 c -3.7,-3.1 -5.5,-6.1 -5.5,-9.2 v -3.2 c 0,-2.4 0.8,-4.3 2.5,-5.6 1.7,-1.3 4,-2 7,-2 3,0 5.4,0.7 7,2.1 1.7,1.4 2.5,3.4 2.5,5.9 v 5.5 h -8 v -5.7 c 0,-0.8 -0.1,-1.4 -0.3,-1.7 -0.2,-0.3 -0.6,-0.5 -1.1,-0.5 -0.5,0 -0.9,0.2 -1.1,0.5 -0.2,0.3 -0.3,0.9 -0.3,1.7 V 40 c 0,1.6 1.3,3.5 3.9,5.4 0.6,0.5 1.1,0.8 1.4,1.1 2.5,2 4.1,3.6 4.7,4.8 0.6,1.1 0.9,2.6 0.9,4.5 v 4.1 z" id="path15" style="fill:#ffffff"/>
      <path inkscape:connector-curvature="0" d="M 137.03833,58 V 40.5 c 0,-3.8 0.7,-6.5 2.2,-8 1.4,-1.5 3.9,-2.3 7.2,-2.3 3,0 5.3,0.7 7,2.1 1.7,1.4 2.5,3.3 2.5,5.8 v 5.7 h -8 v -5.7 c 0,-0.8 -0.1,-1.4 -0.3,-1.7 -0.2,-0.3 -0.6,-0.5 -1.1,-0.5 -0.5,0 -0.9,0.2 -1.1,0.5 -0.2,0.3 -0.3,0.9 -0.3,1.7 v 22 c 0,0.8 0.1,1.4 0.3,1.7 0.2,0.3 0.6,0.5 1.1,0.5 0.5,0 0.9,-0.2 1.1,-0.5 0.2,-0.3 0.3,-0.9 0.3,-1.7 v -6.8 h 8 V 60 c 0,2.6 -0.8,4.7 -2.5,6.1 -1.7,1.4 -4,2.2 -7,2.2 -3.4,0 -5.8,-0.8 -7.3,-2.3 -1.4,-1.6 -2.1,-4.3 -2.1,-8 z" id="path17" style="fill:#ffffff"/>
      <path inkscape:connector-curvature="0" d="M 158.23833,67.4 V 22 h 8 v 12.1 h 0.1 c 0.6,-1.3 1.4,-2.2 2.3,-2.8 0.9,-0.6 2,-0.9 3.3,-0.9 1.7,0 3.1,0.5 3.9,1.6 0.9,1 1.3,2.6 1.3,4.6 v 30.9 h -8.1 V 39.2 c 0,-0.8 -0.1,-1.4 -0.3,-1.7 -0.2,-0.3 -0.6,-0.4 -1.1,-0.4 -0.5,0 -0.9,0.2 -1.1,0.5 -0.2,0.3 -0.4,0.9 -0.4,1.6 v 28.2 h -7.9 z" id="path19" style="fill:#ffffff"/>
      <path inkscape:connector-curvature="0" d="m 183.21779,67.4 -5,-36.4 h 8.1 l 1.5,18.8 c 0.1,1.2 0.1,2.5 0.2,3.9 0,1.4 0.1,3 0.1,4.6 h 0.3 c 0.1,-3 0.3,-6 0.6,-9 0,-0.2 0,-0.4 0.1,-0.5 l 2,-17.9 h 8.4 l 1.6,18.8 c 0,0.2 0.1,1.2 0.1,3.1 0.1,1.9 0.1,3.7 0.2,5.4 h 0.3 c 0.1,-2.7 0.3,-5.5 0.6,-8.3 0.1,-0.6 0.1,-0.9 0.1,-1.1 l 1.6,-17.9 h 7.8 l -5.4,36.4 h -9.3 l -1.5,-16.7 c 0,-0.5 -0.1,-1.5 -0.2,-3.1 -0.1,-1.5 -0.1,-3.3 -0.2,-5.3 h -0.1 c -0.1,2.7 -0.3,5.3 -0.6,7.7 V 50 l -2.2,17.2 h -9.1 z" id="path21" style="fill:#ffffff"/>
      <path inkscape:connector-curvature="0" d="m 220.79725,60.1 c 0,0.8 0.1,1.4 0.3,1.7 0.2,0.3 0.6,0.5 1.1,0.5 0.5,0 0.9,-0.2 1.1,-0.5 0.2,-0.3 0.3,-0.9 0.3,-1.7 v -6.8 h 8 V 60 c 0,2.6 -0.8,4.7 -2.5,6.1 -1.7,1.4 -4,2.2 -7,2.2 -3.4,0 -5.8,-0.8 -7.3,-2.3 -1.5,-1.6 -2.2,-4.2 -2.2,-8 V 40.5 c 0,-3.8 0.7,-6.5 2.2,-8 1.4,-1.5 3.9,-2.3 7.2,-2.3 3,0 5.3,0.7 7,2.1 1.7,1.4 2.5,3.3 2.5,5.8 v 12.4 h -10.9 v 9.6 z m 0,-22 V 45 h 2.9 v -6.9 c 0,-0.8 -0.1,-1.4 -0.3,-1.7 -0.2,-0.3 -0.6,-0.5 -1.1,-0.5 -0.5,0 -0.9,0.2 -1.1,0.5 -0.3,0.3 -0.4,0.9 -0.4,1.7 z" id="path23" style="fill:#ffffff"/>
      <path inkscape:connector-curvature="0" d="M 233.87806,28.9 V 22 h 8 v 6.9 h -8 z m 0,38.5 V 31 h 8 v 36.4 h -8 z" id="path25" style="fill:#ffffff"/>
      <path inkscape:connector-curvature="0" d="m 255.27806,59.4 h -0.1 c -0.6,1.4 -1.3,2.4 -2.3,3 -0.9,0.7 -2.1,1 -3.4,1 -1.8,0 -3.1,-0.5 -3.9,-1.5 -0.8,-1 -1.2,-2.5 -1.2,-4.7 V 36 c 0,-1.8 0.4,-3.2 1.3,-4.2 0.9,-1 2.2,-1.5 3.9,-1.5 1.3,0 2.4,0.3 3.3,0.9 0.9,0.6 1.7,1.5 2.4,2.8 h 0.2 v -3 h 7.8 v 34.2 c 0,3.8 -0.7,6.5 -2.2,8 -1.5,1.6 -3.9,2.3 -7.3,2.3 -3,0 -5.3,-0.7 -7,-2.2 -1.7,-1.5 -2.5,-3.5 -2.5,-6.1 v -2.8 h 8 v 2.8 c 0,0.8 0.1,1.4 0.3,1.7 0.2,0.3 0.6,0.5 1.1,0.5 0.5,0 0.9,-0.2 1.1,-0.5 0.2,-0.3 0.3,-0.9 0.3,-1.7 v -7.8 z m -2.9,-4.7 c 0,0.8 0.1,1.4 0.3,1.7 0.2,0.3 0.6,0.5 1.1,0.5 0.5,0 0.9,-0.2 1.1,-0.5 0.2,-0.3 0.4,-0.9 0.4,-1.7 V 38.9 c 0,-0.7 -0.1,-1.3 -0.4,-1.6 -0.2,-0.3 -0.6,-0.5 -1.1,-0.5 -0.5,0 -0.9,0.1 -1.1,0.4 -0.2,0.3 -0.3,0.9 -0.3,1.7 v 15.8 z" id="path27" style="fill:#ffffff"/>
      <path inkscape:connector-curvature="0" d="m 267.81919,67.4 v -9.3 h 8.4 v 9.3 h -8.4 z" id="path29" style="fill:#ffffff"/>
      <path inkscape:connector-curvature="0" d="M 280.75892,67.4 V 36.8 h -2 V 31 h 2 v -3.5 c 0,-1.8 0.5,-3.2 1.6,-4.1 1.1,-1 2.6,-1.5 4.5,-1.5 h 4.5 v 5.7 c -0.9,0 -1.6,0.1 -2,0.3 -0.4,0.2 -0.6,0.6 -0.6,1.1 v 2 h 2.6 v 5.8 h -2.6 v 30.6 h -8 z" id="path31" style="fill:#ffffff"/>
      <path inkscape:connector-curvature="0" d="M 293.12023,67.4 V 31 h 7.9 v 3.1 h 0.1 c 0.7,-1.3 1.5,-2.2 2.4,-2.8 0.9,-0.6 2,-0.9 3.3,-0.9 1.7,0 3.1,0.5 3.9,1.6 0.9,1 1.3,2.6 1.3,4.6 v 14.1 h -8.1 V 39.2 c 0,-0.8 -0.1,-1.4 -0.3,-1.7 -0.2,-0.3 -0.6,-0.4 -1.1,-0.4 -0.5,0 -0.9,0.2 -1.1,0.5 -0.2,0.3 -0.4,0.9 -0.4,1.6 v 28.2 h -7.9 z" id="path33" style="fill:#ffffff"/>
      <path inkscape:connector-curvature="0" d="m 322.3637,60.1 c 0,0.8 0.1,1.4 0.3,1.7 0.2,0.3 0.6,0.5 1.1,0.5 0.5,0 0.9,-0.2 1.1,-0.5 0.2,-0.3 0.3,-0.9 0.3,-1.7 v -6.8 h 8 V 60 c 0,2.6 -0.8,4.7 -2.5,6.1 -1.7,1.4 -4,2.2 -7,2.2 -3.4,0 -5.8,-0.8 -7.3,-2.3 -1.5,-1.6 -2.2,-4.2 -2.2,-8 V 40.5 c 0,-3.8 0.7,-6.5 2.2,-8 1.4,-1.5 3.9,-2.3 7.2,-2.3 3,0 5.3,0.7 7,2.1 1.7,1.4 2.5,3.3 2.5,5.8 v 12.4 h -10.9 v 9.6 z m 0,-22 V 45 h 2.9 v -6.9 c 0,-0.8 -0.1,-1.4 -0.3,-1.7 -0.2,-0.3 -0.6,-0.5 -1.1,-0.5 -0.5,0 -0.9,0.2 -1.1,0.5 -0.2,0.3 -0.4,0.9 -0.4,1.7 z" id="path35" style="fill:#ffffff"/>
      <path inkscape:connector-curvature="0" d="M 335.6661,28.9 V 22 h 8 v 6.9 h -8 z m 0,38.5 V 31 h 8 v 36.4 h -8 z" id="path37" style="fill:#ffffff"/>
      <path inkscape:connector-curvature="0" d="M 347.76371,67.4 V 36.8 h -2 V 31 h 2 v -3.5 c 0,-1.8 0.5,-3.2 1.6,-4.1 1.1,-1 2.6,-1.5 4.5,-1.5 h 4.5 v 5.7 c -0.9,0 -1.6,0.1 -2,0.3 -0.4,0.2 -0.6,0.6 -0.6,1.1 v 2 h 2.6 v 5.8 h -2.6 v 30.6 h -8 z" id="path39" style="fill:#ffffff"/>
      <path inkscape:connector-curvature="0" d="m 379.48633,31 v 36.4 h -7.9 v -3 h -0.2 c -0.7,1.3 -1.5,2.2 -2.4,2.8 -0.9,0.6 -2,0.9 -3.3,0.9 -1.7,0 -3.1,-0.5 -3.9,-1.5 -0.9,-1 -1.3,-2.5 -1.3,-4.6 V 31 h 8 v 28.2 c 0,0.8 0.1,1.4 0.4,1.7 0.3,0.3 0.6,0.5 1.2,0.5 0.5,0 0.8,-0.2 1.1,-0.5 0.2,-0.3 0.3,-0.9 0.3,-1.6 V 31 h 8 z" id="path41" style="fill:#ffffff"/>
      <path inkscape:connector-curvature="0" d="M 381.80687,67.4 V 31 h 7.9 v 3.1 h 0.1 c 0.7,-1.3 1.5,-2.2 2.4,-2.8 0.9,-0.6 2,-0.9 3.3,-0.9 1.7,0 3.1,0.5 3.9,1.6 0.9,1 1.3,2.6 1.3,4.6 v 30.9 h -8.1 V 39.2 c 0,-0.8 -0.1,-1.4 -0.3,-1.7 -0.2,-0.3 -0.6,-0.4 -1.1,-0.4 -0.5,0 -0.9,0.2 -1.1,0.5 -0.2,0.3 -0.4,0.9 -0.4,1.6 v 28.2 h -7.9 z" id="path43" style="fill:#ffffff"/>
      <path inkscape:connector-curvature="0" d="M 403.02741,67.4 V 22 h 8 v 24.9 h 0.1 l 3.4,-15.8 h 8.2 l -4,15.7 4,20.7 h -8.4 l -3.2,-19.1 h -0.1 v 19.1 h -8 z" id="path45" style="fill:#ffffff"/>
      <path inkscape:connector-curvature="0" d="M 439.46037,67.4 V 31 h 7.9 v 3.1 h 0.1 c 0.7,-1.3 1.5,-2.2 2.4,-2.8 0.9,-0.6 2,-0.9 3.3,-0.9 1.7,0 3.1,0.5 3.9,1.6 0.9,1 1.3,2.6 1.3,4.6 v 30.9 h -8.1 V 39.2 c 0,-0.8 -0.1,-1.4 -0.3,-1.7 -0.2,-0.3 -0.6,-0.4 -1.1,-0.4 -0.5,0 -0.9,0.2 -1.1,0.5 -0.2,0.3 -0.4,0.9 -0.4,1.6 v 28.2 h -7.9 z" id="path49" style="fill:#ffffff"/>
      <path inkscape:connector-curvature="0" d="m 426.56307,67.4 v -9.3 h 8.4 v 9.3 h -8.4 z" id="path47" style="fill:#ffffff"/>
      <path inkscape:connector-curvature="0" d="m 469.0001,60.1 c 0,0.8 0.1,1.4 0.3,1.7 0.2,0.3 0.6,0.5 1.1,0.5 0.5,0 0.9,-0.2 1.1,-0.5 0.2,-0.3 0.3,-0.9 0.3,-1.7 v -6.8 h 8 V 60 c 0,2.6 -0.8,4.7 -2.5,6.1 -1.7,1.4 -4,2.2 -7,2.2 -3.4,0 -5.8,-0.8 -7.3,-2.3 -1.5,-1.6 -2.2,-4.2 -2.2,-8 V 40.5 c 0,-3.8 0.7,-6.5 2.2,-8 1.4,-1.5 3.9,-2.3 7.2,-2.3 3,0 5.3,0.7 7,2.1 1.7,1.4 2.5,3.3 2.5,5.8 v 12.4 h -10.9 v 9.6 z m 0,-22 V 45 h 2.9 v -6.9 c 0,-0.8 -0.1,-1.4 -0.3,-1.7 -0.2,-0.3 -0.6,-0.5 -1.1,-0.5 -0.5,0 -0.9,0.2 -1.1,0.5 -0.2,0.3 -0.4,0.9 -0.4,1.7 z" id="path51" style="fill:#ffffff"/>
      <path inkscape:connector-curvature="0" d="M 480.97852,36.9 V 31 h 2 v -6.8 h 8.1 V 31 h 2.3 v 5.8 h -2.3 V 59 c 0,1.1 0.1,1.8 0.4,2.1 0.3,0.3 0.8,0.4 1.6,0.4 h 0.3 v 5.9 h -5.1 c -2,0 -3.3,-0.4 -4.1,-1.3 -0.8,-0.9 -1.2,-2.6 -1.2,-5 V 36.9 h -2 z" id="path53" style="fill:#ffffff"/>
    </g>
    <g transform="translate(-7.4966946,318.40084)" id="g5350" style="fill:#1a181d;fill-opacity:1" inkscape:export-filename="/home/seb/work/freifunk-bs-logo/freifunk-bs-logo.png" inkscape:export-xdpi="600.03082" inkscape:export-ydpi="600.03082">
      <path style="fill:#1a181d;fill-opacity:1;fill-rule:nonzero;stroke:none" d="m 595.92581,1492.2419 0,9.3437 -9.875,9.5626 -0.40625,43.875 -80.84375,2.4374 -15.84375,-13.4062 -15.4375,18.2812 0,29.25 -11.375,-0.4062 -0.8125,-25.1875 -21.53125,-0.4063 -2.65625,-8.5312 -39.59375,-0.4062 -2.03125,8.125 -23.1875,0.8124 0,17.0626 -1.21875,29.6562 305.05752,2.7077 0.24238,-3.4507 c 0,0 -5.23054,-4.6796 -8.26865,-7.0382 -2.99707,-2.3269 -6.34982,-4.1991 -9.8125,-5.75 -3.4862,-1.562 -10.90625,-3.5313 -10.90625,-3.5313 l 3.65625,-24.7813 0,-12.6562 -1.71875,0 0,3.7188 -5.1875,0 -9.40625,-13.1563 0,-9.4375 -1.71875,0 0,9.5938 -10.40625,13 -2.71875,0 0,-3.8438 -1.71875,0 0,3.8438 -0.0312,0 0,8.5312 2.84375,21.9375 -10.59375,-0.8125 -3.25,-80.0312 -9.53125,-9.625 0,-9.2813 -1.71875,0 z m -0.3125,20.7187 2.625,0 0,7.3126 -2.625,0 z m 31.59375,54.1563 3.34375,0 0,3.3437 -3.34375,0 z m 5.375,0 3.34375,0 0,3.3437 -3.34375,0 z m 5.375,0 3.375,0 0,3.3437 -3.375,0 z m -154.6875,2.5313 4.25,0 0,10.9687 -4.25,0 z m 7.90625,0 4.28125,0 0,10.9687 -4.28125,0 z m -87.53125,10.6562 2.9375,0 0,5.6562 -2.9375,0 z m 6.40625,0 2.9375,0 0,5.6562 -2.9375,0 z m 6.375,0 2.9375,0 0,5.6562 -2.9375,0 z m 6.40625,0 2.9375,0 0,5.6562 -2.9375,0 z m 6.375,0 2.96875,0 0,5.6562 -2.96875,0 z" id="path5352" inkscape:connector-curvature="0" sodipodi:nodetypes="cccccccccccccccccccccccccccccccccccccccccccccccccccccccccccccccccccccccccccccccccccccccccccccccccccc"/>
      <path inkscape:connector-curvature="0" id="path5354" d="m 262.76258,1473.633 -3.6875,26.0626 0,8.9062 -0.4375,-0.031 -1.3125,-8.5626 -3.40625,15.4688 0,13.9375 1,1.75 0,61.0625 103.15625,0 0,-32.4062 -23,-16.375 -9.78125,0 -2.375,-20.25 -2,20.25 -27.3125,0 -2.28125,-19.4063 -1.90625,19.4063 -19.25,0 0,-15.6876 1.40625,-3.7812 0,-7.7812 -2.53125,-15.7813 -1.46875,8.4687 -0.875,-0.2812 -0.15625,-8.0625 -3.78125,-26.9063 z m -1.03125,26.75 2.15625,0 0,5.625 -2.15625,0 0,-5.625 z" style="fill:#1a181d;fill-opacity:1;fill-rule:nonzero;stroke:none"/>
      <path inkscape:connector-curvature="0" id="path5356" d="m 222.22852,1534.5034 -4.8125,6.0626 -0.0625,17.0937 -4.0625,-8.125 -82.90625,-3.6563 -2.8125,6.875 0,-8.9062 -4.46875,0 0,19.8438 -0.0312,0.062 0.0937,21.625 -5.375,-0.094 0,-25.5937 -29.3125,-0.4063 0,11.0937 -0.65625,0 0,-11.0937 -0.0937,0 -1.21875,-10.5625 -11.8125,-1.7812 0,10.7812 -0.65625,0 0,-10.875 -11.90625,-1.7812 -8.03125,4.375 -0.1875,-2.0938 -3.4375,2 -2.5625,3.4375 0,0.031 0.40625,45.5 c 0,0 -5.20299,0.2074 -7.71875,0.8124 -5.89018,1.6428 -8.79728,2.6302 -13.46875,5.7813 -2.33297,1.5766 -8.738266,6.543 -8.738266,6.543 l 0.712371,1.4417 224.530455,2.0534 1.33919,-4.0381 0,-25.2187 c -0.40631,-2.8444 -0.8125,-17.875 -0.8125,-17.875 l -8.9375,-9.3438 -8.125,0 -0.375,-17.5625 -4.5,-6.4063 z m -3.1875,8.9688 1.25,0 0,3.9688 -1.25,0 z m 2.46875,0 1.21875,0 0,3.9688 -1.21875,0 z m 2.53125,0 1.21875,0 0,3.9688 -1.21875,0 z m -164.84375,7.8125 0,4.1563 -4.28125,1.8124 0,-4.1562 z m 17.96875,4.0625 2.34375,0 0,3.6562 -2.34375,0 z m 3.46875,0.1875 2.3125,0 0,3.6563 -2.3125,0 z m -11.28125,0.094 2.03125,0 0,1.8438 -2.03125,0 z m -4.5625,8.125 3.4375,0 0,3.0626 -3.4375,0 z m 13.09375,0.8126 2.84375,0 0,7.625 -2.84375,0 z m 90.53125,0.6562 c 1.34676,-0.1657 2.6351,1.4764 2.625,1.5 l 0,7.25 -5.15625,0 0,-7.25 c -1.1e-4,-2e-4 0.91799,-1.3015 2.53125,-1.5 z m 9.9375,0 c 1.34676,-0.1657 2.66635,1.4764 2.65625,1.5 l 0,7.25 -5.1875,0 0,-7.25 c -1.1e-4,-2e-4 0.91799,-1.3015 2.53125,-1.5 z m -82.90625,0.1562 8.125,0 0,2.25 -8.125,0 z m 11.875,0.125 7,2.125 -0.65625,2.125 -7,-2.125 z m 123.34375,4.4063 3.84375,0 0,5.625 -3.84375,0 z m 6.375,0 3.875,0 0,5.625 -3.875,0 z m -177.4375,3.1875 0,4.875 -3.46875,1.0312 0,-4.875 z" style="fill:#1a181d;fill-opacity:1;fill-rule:nonzero;stroke:none" sodipodi:nodetypes="ccccccccccccccccccccccccccccccccccccccccccccccccccccccccccccccccccccccccccccccccccccccccsccccssccccsccccccccccccccccccccccccc"/>
      <rect style="fill:#1a181d;fill-opacity:1;fill-rule:nonzero;stroke:none" id="rect5358" width="25.191059" height="26.65995" x="237.3028" y="1585.9773"/>
      <rect style="fill:#1a181d;fill-opacity:1;fill-rule:nonzero;stroke:none" id="rect5360" width="121.46985" height="30.062519" x="258.52924" y="1582.1897"/>
    </g>
    <g inkscape:transform-center-x="44.175431" transform="matrix(2.118042,0,0,2.118042,25.294374,1699.1331)" id="g5362" inkscape:transform-center-y="-6.0104077" inkscape:export-filename="/home/seb/work/freifunk-bs-logo/freifunk-bs-logo.png" inkscape:export-xdpi="600.03082" inkscape:export-ydpi="600.03082">
      <circle id="circle5364" stroke-miterlimit="4" transform="matrix(1.477616,0,0,1.5065066,-3.122124,-2.4350016)" r="22" cy="54" cx="36" sodipodi:cx="36" sodipodi:cy="54" sodipodi:rx="22" sodipodi:ry="22" style="fill:none;stroke:#de2c68;stroke-width:1.14544892;stroke-miterlimit:4;stroke-opacity:1;stroke-dasharray:none" d="M 58,54 C 58,66.150264 48.150264,76 36,76 23.849736,76 14,66.150264 14,54 14,41.849736 23.849736,32 36,32 c 12.150264,0 22,9.849736 22,22 z"/>
      <circle id="circle5366" stroke-miterlimit="4" transform="matrix(1.5950476,0,0,1.6223254,-10.072136,-9.1778182)" r="22" cy="44" cx="74" sodipodi:cx="74" sodipodi:cy="44" sodipodi:rx="22" sodipodi:ry="22" style="fill:none;stroke:#de2c68;stroke-width:1.06239557;stroke-miterlimit:4;stroke-opacity:1;stroke-dasharray:none" d="M 96,44 C 96,56.150264 86.150264,66 74,66 61.849736,66 52,56.150264 52,44 52,31.849736 61.849736,22 74,22 c 12.150264,0 22,9.849736 22,22 z"/>
      <circle id="circle5368" stroke-miterlimit="4" transform="matrix(1.5831269,0,0,1.5986441,-9.3397104,-8.1360194)" r="29" cy="44" cx="74" sodipodi:cx="74" sodipodi:cy="44" sodipodi:rx="29" sodipodi:ry="29" style="fill:none;stroke:#de2c68;stroke-width:5.81192684;stroke-miterlimit:4;stroke-opacity:1;stroke-dasharray:none" d="M 103,44 C 103,60.016258 90.016258,73 74,73 57.983742,73 45,60.016258 45,44 45,27.983742 57.983742,15 74,15 c 16.016258,0 29,12.983742 29,29 z" inkscape:export-filename="/home/seb/work/freifunk-bs-logo/freifunk-bs-avatar.png" inkscape:export-xdpi="210.34973" inkscape:export-ydpi="210.34973"/>
      <polygon id="polygon5370" transform="matrix(1.4493674,0,0,1.3737988,-1.0724148,-2.9215502)" points="22,52 30,52 26,56 31,56 37,50 31,44 26,44 30,48 22,48 " style="fill:#ffcc33;fill-opacity:1"/>
      <polygon style="fill:#ffcc33;fill-opacity:1" points="75,47 81,41 73,41 64,50 73,59 81,59 75,53 88,53 88,47 " transform="matrix(1.3375402,0,0,1.3842726,24.624006,23.054037)" id="polygon5372"/>
    </g>
    <g id="g5546" transform="matrix(0.83385362,0,0,0.83385362,91.213247,318.14781)" style="fill:#ffffff;fill-opacity:1" inkscape:export-filename="/home/seb/work/freifunk-bs-logo/freifunk-bs-logo.png" inkscape:export-xdpi="600.03082" inkscape:export-ydpi="600.03082">
      <path sodipodi:nodetypes="aaaaasssaaacaaaacaaaaaassssssssaaaacacsscssssaaaaaacccaacssccscaaacaaacaaaa" inkscape:connector-curvature="0" inkscape:original-d="m 544.54551,1887.009 c -0.95941,-0.4437 -2.10097,-0.4391 -3.15318,-0.3377 -0.50823,0.048 -1.01509,0.2072 -1.46398,0.4504 -0.51553,0.2794 -0.84244,0.8349 -1.35136,1.1261 -0.86161,0.4932 -1.87077,0.665 -2.80284,1.0066 -0.6271,0.2299 -1.22976,0.5361 -1.87676,0.7019 -0.43598,0.1111 -1.85381,0.3055 -2.3387,0.2861 -0.5958,-0.024 -0.24992,-0.2475 -0.6394,0.145 -0.21673,0.2184 -0.14191,0.6074 -0.12511,0.9146 0.0217,0.3978 0.19747,0.7718 0.29001,1.1591 0.17386,0.7278 0.26076,1.4792 0.49828,2.1887 0.11954,0.357 0.46295,1.0306 0.46295,1.0306 0,0 2.05952,-0.3862 3.05304,-0.1594 0.41261,0.093 1.09459,0.187 1.11365,0.6098 0.0248,0.5506 -0.8666,0.7038 -1.37303,0.9214 -0.3695,0.1587 -0.78275,0.1859 -1.17727,0.2639 -0.52535,0.1039 -1.58341,0.2718 -1.58341,0.2718 0,0 -0.084,0.4605 -0.033,0.6825 0.10513,0.4584 0.35816,0.8917 0.67567,1.2388 0.27411,0.2994 0.60823,0.6512 1.01353,0.6755 0.23917,0.014 0.40255,-0.3067 0.64153,-0.3241 0.81082,-0.058 1.76757,0.1714 2.31258,0.7747 1.17,1.295 0.95613,3.3732 1.15228,5.1074 0.15276,1.3507 -0.274,2.7493 0.0137,4.0779 0.21361,0.9865 0.48464,1.9928 0.85197,2.9558 0.4782,1.2534 1.11961,2.4332 2.01002,3.3995 0.61745,0.6701 2.71378,1.6494 3.59187,1.9857 0.69248,0.2653 0.17571,-0.1253 0.68743,0.3792 0.21554,0.2125 0.36202,0.4989 0.45047,0.7883 0.48802,1.5972 0.40267,3.1209 0.49997,4.8102 0.0803,1.3947 0.4119,2.9531 0.1757,4.3115 -0.0633,0.3642 -0.20547,0.7366 -0.45046,1.0134 -0.14503,0.1641 -0.35473,0.2709 -0.56305,0.338 -0.43022,0.1386 -0.94333,-0.082 -1.35136,0.1122 -0.27646,0.1318 -0.55297,0.3684 -0.63587,0.6631 -0.0924,0.3286 0.21956,1 0.21956,1 0,0 1.52844,0.4096 2.31141,0.5027 1.27408,0.1515 3.84817,0.086 3.84817,0.086 0,0 0.67355,-2.3865 0.90091,-3.6036 0.2559,-1.37 0.35537,-3.5684 0.56973,-5.3842 0.29768,-2.5212 0.66902,-4.5258 0.66902,-4.5258 0,0 11.72713,-0.8577 17.2294,-1.3864 3.89478,-0.3741 1.29341,-0.6825 4.16715,0.034 1.78003,0.4444 2.98326,1.4117 4.51033,2.4899 1.15229,0.8135 2.67755,1.6558 3.71044,2.5777 0.49866,0.445 0.94476,0.9763 1.23875,1.5765 0.34043,0.6949 0.48389,1.4826 0.56307,2.2523 0.0962,0.9343 0.0834,1.8969 -0.11257,2.8154 -0.0422,0.1976 -0.0652,0.4396 -0.22523,0.563 -0.47915,0.37 -1.25807,-0.04 -1.80181,0.2253 -0.14307,0.07 -0.26964,0.1938 -0.33784,0.3378 -0.16155,0.3409 -0.11257,1.1261 -0.11257,1.1261 l 4.95497,-0.1122 0,-7.6578 c 0,0 1.33948,1.0566 1.68921,1.8018 0.25713,0.548 0.15745,1.2004 0.22523,1.8019 0.0939,0.8335 0.25139,2.5037 0.25139,2.5037 0,0 -0.53466,0.076 -1.02185,0.15 -0.38016,0.058 -0.7003,0.084 -0.91875,0.2743 -0.3307,0.2892 -0.45045,1.2387 -0.45045,1.2387 l 4.84238,0 c 0,0 -0.44974,-2.216 -0.51368,-4.7053 -0.0462,-1.7952 -0.16199,-4.9794 -0.16199,-4.9794 0,0 -1.51568,-1.109 -2.13967,-1.8019 -0.94061,-1.0443 -1.61095,-2.3049 -2.36488,-3.4911 -0.98414,-1.5484 -2.03098,-3.071 -2.81532,-4.7296 -0.61423,-1.2989 -1.46398,-4.0542 -1.46398,-4.0542 0,0 -3.12551,-2.4016 -4.955,-3.0406 -3.21322,-1.1222 -6.75361,-0.8526 -10.13521,-1.2386 -2.47531,-0.2826 -5.0332,-0.117 -7.43247,-0.7884 -0.67921,-0.19 -1.91443,-0.9008 -1.91443,-0.9008 0,0 -1.98872,-1.6982 -2.81534,-2.7027 -1.58796,-1.9298 -2.63883,-4.2468 -4.05409,-6.3064 -0.79087,-1.151 -1.55468,-2.3302 -2.47749,-3.3784 -0.68428,-0.7772 -1.31242,-1.7049 -2.25227,-2.1396 z" inkscape:path-effect="#path-effect5517" id="path5515" d="m 544.54551,1887.009 c -1.00789,-0.3473 -2.0946,-0.4637 -3.15318,-0.3377 -0.51101,0.061 -1.02528,0.1814 -1.46398,0.4504 -0.50057,0.307 -0.87192,0.7871 -1.35136,1.1261 -0.40737,0.288 -0.88192,0.4664 -1.36087,0.6062 -0.47896,0.1397 -0.96823,0.2439 -1.44197,0.4004 -0.63441,0.2096 -1.23638,0.5114 -1.87676,0.7019 -0.75552,0.2248 -1.55046,0.2902 -2.3387,0.2861 -0.1118,-6e-4 -0.22426,-0 -0.33462,0.015 -0.11036,0.018 -0.2198,0.057 -0.30478,0.1296 -0.0617,0.053 -0.10861,0.1218 -0.13972,0.1968 -0.0311,0.075 -0.0468,0.1558 -0.0511,0.2369 -0.009,0.1622 0.0275,0.3231 0.0657,0.4809 0.0937,0.3871 0.2019,0.7707 0.29001,1.1591 0.16564,0.7302 0.26074,1.4787 0.49828,2.1887 0.11968,0.3577 0.27501,0.7035 0.46295,1.0306 1.0102,-0.1441 2.03332,-0.1976 3.05304,-0.1594 0.23001,0.01 0.46525,0.023 0.6772,0.1128 0.10598,0.045 0.20488,0.1087 0.28304,0.1932 0.0782,0.084 0.1349,0.1902 0.15341,0.3038 0.0249,0.1529 -0.0213,0.3128 -0.11004,0.4398 -0.0887,0.1271 -0.21732,0.2229 -0.35753,0.2888 -0.28044,0.1319 -0.59889,0.1475 -0.90546,0.1928 -0.398,0.059 -0.78587,0.1708 -1.17727,0.2639 -0.52134,0.124 -1.05056,0.2149 -1.58341,0.2718 -0.0643,0.2207 -0.0757,0.4566 -0.033,0.6825 0.0882,0.4665 0.39304,0.8574 0.67567,1.2388 0.12737,0.1719 0.2541,0.348 0.42056,0.4823 0.0832,0.067 0.17614,0.1234 0.27705,0.1589 0.10091,0.035 0.21008,0.05 0.31592,0.034 0.11937,-0.017 0.23026,-0.072 0.33352,-0.1342 0.10327,-0.062 0.20131,-0.1336 0.30801,-0.1899 0.19489,-0.1028 0.41579,-0.1535 0.63614,-0.1553 0.22035,-0 0.44006,0.044 0.64477,0.1259 0.40942,0.1631 0.75252,0.4631 1.03167,0.8041 0.56566,0.6911 0.88944,1.556 1.04342,2.4357 0.15397,0.8797 0.1466,1.7794 0.10886,2.6717 -0.0575,1.3604 -0.18411,2.7307 0.0137,4.0779 0.14928,1.0167 0.4806,1.9977 0.85197,2.9558 0.47971,1.2376 1.05167,2.4811 2.01002,3.3995 0.99424,0.9528 2.31425,1.4719 3.59187,1.9857 0.24422,0.098 0.49401,0.2006 0.68743,0.3792 0.22477,0.2075 0.35235,0.4986 0.45047,0.7883 0.5189,1.5323 0.37091,3.1976 0.49997,4.8102 0.11522,1.4397 0.45467,2.8944 0.1757,4.3115 -0.0724,0.3676 -0.19364,0.7406 -0.45046,1.0134 -0.15202,0.1615 -0.34853,0.2817 -0.56305,0.338 -0.21966,0.058 -0.45048,0.048 -0.67751,0.043 -0.22703,-0.01 -0.45947,-0.01 -0.67385,0.069 -0.2999,0.1048 -0.54205,0.3596 -0.63587,0.6631 -0.0527,0.1705 -0.0604,0.3547 -0.0221,0.529 0.0383,0.1743 0.12243,0.3383 0.2417,0.471 0.75688,0.2235 1.53008,0.3916 2.31141,0.5027 1.27327,0.181 2.56809,0.2099 3.84817,0.086 0.39548,-1.1747 0.69706,-2.381 0.90091,-3.6036 0.2969,-1.7806 0.38591,-3.5884 0.56973,-5.3842 0.15534,-1.5176 0.37865,-3.0282 0.66902,-4.5258 5.75395,-0.3112 11.49973,-0.7735 17.2294,-1.3864 1.38884,-0.1486 2.81188,-0.3039 4.16715,0.034 1.67565,0.4178 3.06797,1.5402 4.51033,2.4899 1.25967,0.8294 2.60452,1.5522 3.71044,2.5777 0.4927,0.4569 0.93703,0.9761 1.23875,1.5765 0.34963,0.6957 0.49637,1.4765 0.56307,2.2523 0.0807,0.9384 0.0496,1.8876 -0.11257,2.8154 -0.0177,0.1011 -0.037,0.2024 -0.0709,0.2993 -0.0339,0.097 -0.0831,0.1898 -0.15431,0.2637 -0.10829,0.1124 -0.26133,0.1739 -0.41586,0.196 -0.15453,0.022 -0.31187,0.01 -0.46661,-0.013 -0.15474,-0.021 -0.30922,-0.047 -0.46529,-0.05 -0.15608,-0 -0.3159,0.02 -0.45405,0.092 -0.1427,0.075 -0.25447,0.1998 -0.33784,0.3378 -0.2016,0.3337 -0.24411,0.7591 -0.11257,1.1261 l 4.95497,-0.1122 0,-7.6578 c 0.78816,0.3176 1.42303,0.9948 1.68921,1.8018 0.19026,0.5768 0.1969,1.1952 0.22523,1.8019 0.0391,0.8382 0.1231,1.6744 0.25139,2.5037 -0.34057,0.05 -0.68119,0.1003 -1.02185,0.15 -0.31896,0.046 -0.6495,0.097 -0.91875,0.2743 -0.19664,0.1294 -0.34997,0.3235 -0.43043,0.5447 -0.0805,0.2213 -0.0876,0.4685 -0.02,0.694 l 4.84238,0 c -0.22939,-1.5614 -0.40077,-3.1312 -0.51368,-4.7053 -0.11884,-1.6568 -0.1729,-3.3183 -0.16199,-4.9794 -0.79488,-0.4936 -1.51801,-1.1026 -2.13967,-1.8019 -0.93524,-1.0521 -1.62933,-2.2909 -2.36488,-3.4911 -0.95913,-1.565 -2.00231,-3.0839 -2.81532,-4.7296 -0.63775,-1.2909 -1.12985,-2.6537 -1.46398,-4.0542 -1.43334,-1.3224 -3.12688,-2.3616 -4.955,-3.0406 -3.20878,-1.1918 -6.71227,-1.2532 -10.13521,-1.2386 -2.5046,0.011 -5.07054,0.045 -7.43247,-0.7884 -0.6662,-0.2351 -1.30865,-0.5373 -1.91443,-0.9008 -1.03929,-0.7873 -1.98626,-1.6964 -2.81534,-2.7027 -1.59064,-1.9306 -2.72622,-4.1865 -4.05409,-6.3064 -0.74217,-1.1849 -1.54887,-2.3332 -2.47749,-3.3784 -0.6886,-0.775 -1.44294,-1.4916 -2.25227,-2.1396 l -10e-5,0" style="fill:#ffffff;fill-opacity:1;stroke:none"/>
      <path style="fill:#ffffff;fill-opacity:1;stroke:none" d="m 587.62533,1924.0237 c 0.71133,0.8372 1.50097,1.6078 2.35524,2.2985 1.05017,0.8491 2.21063,1.5832 3.4903,2.0148 0.8387,0.2829 1.7496,0.432 2.61063,0.2269 0.78542,-0.1871 1.50005,-0.6783 1.9296,-1.362 0.43974,-0.6999 0.56669,-1.5885 0.34051,-2.3835 -0.18338,0.206 -0.42032,0.3639 -0.68103,0.4539 -0.49818,0.1719 -1.05101,0.093 -1.5607,0.227 -0.38528,0.1013 -0.73208,0.3222 -1.02155,0.5959 -0.29747,0.2813 -0.53983,0.6206 -0.7094,0.9932 -0.88804,-0.1745 -1.74143,-0.5235 -2.49714,-1.0215 -0.81301,-0.5357 -1.50375,-1.234 -2.18498,-1.9296 -0.88459,-0.9033 -1.76428,-1.8114 -2.63901,-2.7242 l 0.56753,2.6106" id="path5521" inkscape:path-effect="#path-effect5523-8-8" inkscape:original-d="m 587.62533,1924.0237 c 0,0 1.48086,1.6361 2.35524,2.2985 1.07076,0.8113 2.209,1.6112 3.4903,2.0148 0.83314,0.2624 1.76739,0.4548 2.61063,0.2269 0.76003,-0.2053 1.51876,-0.6904 1.9296,-1.362 0.41884,-0.6847 0.34051,-2.3835 0.34051,-2.3835 0,0 -0.42629,0.3563 -0.68103,0.4539 -0.49084,0.1883 -1.06443,0.054 -1.5607,0.227 -0.37214,0.13 -0.73025,0.3303 -1.02155,0.5959 -0.30063,0.2742 -0.7094,0.9932 -0.7094,0.9932 0,0 -1.7332,-0.5469 -2.49714,-1.0215 -0.82539,-0.5128 -1.48224,-1.2586 -2.18498,-1.9296 -0.91434,-0.8732 -2.63901,-2.7242 -2.63901,-2.7242 z" inkscape:connector-curvature="0" sodipodi:nodetypes="caaaacaaacaacc"/>
    </g>
  </g>
</svg>